<?xml version="1.0" encoding="UTF-8"?><svg id="Layer_1" xmlns="http://www.w3.org/2000/svg" xmlns:xlink="http://www.w3.org/1999/xlink" viewBox="0 0 345 175"><defs><style>.cls-1{fill:url(#linear-gradient);}.cls-1,.cls-2,.cls-3,.cls-4{stroke-width:0px;}.cls-2{fill:#9b9d9f;}.cls-3{fill:#241f20;}.cls-4{fill:#999a9d;}</style><linearGradient id="linear-gradient" x1="84.78" y1="108.41" x2="84.78" y2="20.4" gradientUnits="userSpaceOnUse"><stop offset="0" stop-color="#cfd2d3"/><stop offset=".26" stop-color="#c7cacb"/><stop offset=".67" stop-color="#b1b4b5"/><stop offset="1" stop-color="#9b9d9f"/></linearGradient></defs><path class="cls-1" d="m90.89,20.4h29.33l15.86,15.09-45.19-15.09Zm-60.35,17.89l-13.04,12.4,58.82,57.71L30.54,38.29Zm47.01-17.89h-28.21l-16.27,15.48,44.48-15.48Zm74.51,30.29l-12.43-11.82-13.87,26.58,26.3-14.76Z"/><path class="cls-3" d="m88.44,74.16h10.5c5.1,0,8.85.93,12,3.42,3.96,3.18,6.38,8.31,6.38,13.88,0,6.45-2.83,11.88-7.57,14.96-3.81,2.49-7.67,2.49-12.3,2.49h-9.01v-34.76Zm1.8,1.61v31.53h10.04c9.16,0,15.19-6.26,15.19-15.99,0-9.14-5.66-15.55-15.96-15.55h-9.27Z"/><path class="cls-3" d="m123.85,108.92v-34.76h1.91v34.76h-1.91Z"/><path class="cls-3" d="m131.12,108.92l15.03-34.76h2.52l15.08,34.76h-1.9l-5.2-12.12h-18.43l-5.2,12.12h-1.91Zm16.32-33.34l-8.49,19.6h16.94l-8.44-19.6Z"/><path class="cls-3" d="m184.38,108.92l-14.93-32.31v32.31h-1.8v-34.76h2.57l15.03,32.36,15.03-32.36h2.52v34.76h-1.8v-32.31l-14.88,32.31h-1.75Z"/><path class="cls-3" d="m215.03,78.51c3.55-3.32,7.88-5.03,12.92-5.03s9.52,1.71,13.13,5.08c3.71,3.47,5.61,7.82,5.61,12.76s-1.6,9.04-4.84,12.42c-3.71,3.86-8.44,5.87-13.95,5.87-10.5,0-18.58-7.92-18.58-18.28,0-4.84,2.01-9.34,5.71-12.81Zm.93,24.69c3.19,3.18,7.67,4.94,11.94,4.94,9.68,0,16.94-7.33,16.94-16.92,0-3.52-1.23-6.84-3.55-9.78-3.45-4.3-7.93-6.5-13.39-6.5-4.38,0-8.49,1.66-11.58,4.65-3.24,3.18-5.1,7.53-5.1,11.73,0,4.64,1.75,8.9,4.74,11.88Z"/><path class="cls-3" d="m278.01,74.16h1.8v34.76h-2.42l-22.39-32.41v32.41h-1.8v-34.76h2.27l22.55,32.41v-32.41Z"/><path class="cls-3" d="m288.3,74.16h10.5c5.1,0,8.85.93,12,3.42,3.96,3.18,6.38,8.31,6.38,13.88,0,6.45-2.83,11.88-7.57,14.96-3.81,2.49-7.67,2.49-12.3,2.49h-9.01v-34.76Zm1.8,1.61v31.53h10.04c9.16,0,15.19-6.26,15.19-15.99,0-9.14-5.66-15.55-15.96-15.55h-9.27Z"/><path class="cls-3" d="m83.6,154.6l15.03-34.76h2.52l15.08,34.76h-1.9l-5.2-12.12h-18.43l-5.2,12.12h-1.91Zm16.32-33.34l-8.49,19.6h16.94l-8.44-19.6Z"/><path class="cls-3" d="m124.76,154.6l-10.5-34.76h1.8l9.63,31.92,9.06-31.92h1.9l9.06,31.92,9.68-31.92h1.75l-10.45,34.76h-1.9l-9.06-31.92-9.06,31.92h-1.9Z"/><path class="cls-3" d="m155.23,154.6l15.03-34.76h2.52l15.08,34.76h-1.9l-5.2-12.12h-18.43l-5.2,12.12h-1.91Zm16.32-33.34l-8.49,19.6h16.94l-8.44-19.6Z"/><path class="cls-3" d="m193.56,154.6h-1.8v-34.76h9.83c3.45,0,6.28.29,8.85,2,2.93,1.96,4.74,5.33,4.74,9.19,0,6.16-4.38,10.41-11.43,10.41h-.93l9.83,13.15h-2.11l-11.02-14.71h4.22c5.87,0,9.63-3.72,9.63-8.9,0-5.72-3.81-9.43-11.27-9.43h-8.55v33.05Z"/><path class="cls-3" d="m221.19,119.84h9c5.1,0,8.85.93,12,3.42,3.96,3.18,6.38,8.31,6.38,13.88,0,6.45-2.83,11.88-7.57,14.96-3.81,2.49-7.67,2.49-12.3,2.49h-7.5v-34.76Zm1.8,1.61v31.53h8.54c9.16,0,15.19-6.26,15.19-15.99,0-9.14-5.66-15.55-15.96-15.55h-7.76Z"/><path class="cls-2" d="m179.03,60.59c-.04-.37-.07-.75-.08-1.11-.01-.37-.03-.68-.04-.93-.03-.45-.09-.87-.18-1.26-.09-.39-.24-.73-.45-1.03-.21-.3-.47-.54-.8-.73-.33-.19-.74-.32-1.23-.39v-.04c.98-.2,1.71-.65,2.21-1.36.5-.71.74-1.54.74-2.5,0-.68-.12-1.27-.37-1.77-.25-.5-.58-.91-1-1.23-.42-.32-.91-.56-1.46-.71-.56-.16-1.15-.23-1.77-.23h-6.94v15.15h1.44v-6.73h5.48c.68-.03,1.21.08,1.6.34.39.25.69.59.89,1.01.2.42.34.89.4,1.42.06.53.11,1.07.14,1.6.01.16.03.34.04.55.01.21.03.43.05.65.02.22.06.43.11.64.05.21.12.38.2.52h1.59c-.16-.18-.28-.44-.37-.77-.09-.33-.16-.69-.2-1.06Zm-3.29-6.33c-.4.13-.81.2-1.25.2h-5.39v-5.96h5.39c1.1,0,1.92.27,2.46.81.54.54.81,1.27.81,2.21,0,.47-.09.88-.27,1.24-.18.36-.41.67-.71.92-.3.25-.64.45-1.04.58Z"/><path class="cls-2" d="m193.66,49.35c-.59-.73-1.34-1.31-2.23-1.74-.89-.43-1.93-.65-3.12-.65s-2.23.22-3.13.65c-.9.43-1.64,1.01-2.24,1.74-.59.73-1.04,1.57-1.34,2.52-.3.95-.45,1.95-.45,2.99s.15,2.04.45,2.99c.3.95.74,1.78,1.34,2.5.59.72,1.34,1.3,2.24,1.73.9.43,1.94.65,3.13.65s2.23-.22,3.12-.65c.89-.43,1.63-1.01,2.23-1.73.59-.72,1.04-1.56,1.34-2.5.3-.95.45-1.95.45-2.99s-.15-2.04-.45-2.99c-.3-.95-.74-1.79-1.34-2.52Zm.01,7.94c-.22.8-.56,1.51-1.02,2.14-.46.63-1.05,1.14-1.76,1.52-.71.38-1.57.57-2.58.57s-1.87-.19-2.59-.57c-.72-.38-1.31-.89-1.77-1.52-.46-.63-.8-1.34-1.02-2.14-.22-.8-.33-1.61-.33-2.43s.11-1.65.33-2.44c.22-.79.56-1.5,1.02-2.13.46-.63,1.05-1.14,1.77-1.52.72-.38,1.58-.57,2.59-.57s1.86.19,2.58.57c.71.38,1.3.89,1.76,1.52.46.63.8,1.34,1.02,2.13.22.79.33,1.61.33,2.44s-.11,1.63-.33,2.43Z"/><polygon class="cls-2" points="206.95 47.28 201.98 54.96 197 47.28 195.3 47.28 201.24 56.19 201.24 62.43 202.69 62.43 202.69 56.19 208.67 47.28 206.95 47.28"/><path class="cls-2" d="m212.72,47.28l-6.09,15.15h1.53l1.83-4.71h6.9l1.85,4.71h1.55l-5.94-15.15h-1.61Zm-2.29,9.21l3.04-7.77,2.93,7.77h-5.96Z"/><polygon class="cls-2" points="223.44 47.28 222 47.28 222 62.43 231.93 62.43 231.93 61.2 223.44 61.2 223.44 47.28"/><polygon class="cls-2" points="241.59 47.28 240.14 47.28 240.14 62.43 250.08 62.43 250.08 61.2 241.59 61.2 241.59 47.28"/><path class="cls-2" d="m274.25,51.61c0-.68-.11-1.29-.32-1.83-.21-.54-.52-.99-.91-1.37-.4-.37-.87-.66-1.42-.85-.55-.19-1.17-.29-1.85-.29h-6.73v15.15h1.44v-6.49h5.28c.68,0,1.3-.1,1.85-.29.55-.19,1.03-.47,1.42-.85.4-.37.7-.83.91-1.37.21-.54.32-1.15.32-1.83Zm-2.38,2.33c-.62.51-1.44.76-2.44.76h-4.97v-6.2h4.97c1,0,1.82.25,2.44.76.62.51.93,1.29.93,2.33s-.31,1.83-.93,2.33Z"/><path class="cls-2" d="m279.7,47.28l-6.09,15.15h1.53l1.83-4.71h6.9l1.85,4.71h1.55l-5.94-15.15h-1.61Zm-2.29,9.21l3.04-7.77,2.93,7.77h-5.96Z"/><path class="cls-2" d="m294.82,55.96h5.16c.01.81-.09,1.55-.32,2.23-.23.68-.57,1.27-1.02,1.76-.45.5-1.01.88-1.67,1.16-.66.28-1.4.41-2.24.41-1.01,0-1.87-.19-2.59-.57-.72-.38-1.31-.89-1.77-1.52-.46-.63-.8-1.34-1.02-2.14-.22-.8-.33-1.61-.33-2.43s.11-1.65.33-2.44c.22-.79.56-1.5,1.02-2.13.46-.63,1.05-1.14,1.77-1.52.72-.38,1.58-.57,2.59-.57.72,0,1.37.12,1.95.35.58.23,1.08.53,1.5.9.42.37.75.77,1,1.22.25.45.39.89.43,1.33h1.44c-.14-.83-.4-1.56-.78-2.19-.38-.62-.85-1.15-1.4-1.57-.55-.42-1.18-.74-1.89-.95s-1.46-.32-2.25-.32c-1.19,0-2.23.22-3.13.65-.9.43-1.64,1.01-2.24,1.74-.59.73-1.04,1.57-1.34,2.52-.3.95-.45,1.95-.45,2.99s.15,2.04.45,2.99c.3.95.74,1.78,1.34,2.5.59.72,1.34,1.3,2.24,1.73.9.43,1.94.65,3.13.65.55,0,1.09-.06,1.6-.17.52-.11,1-.29,1.45-.54.45-.25.87-.57,1.24-.96.38-.39.69-.85.94-1.39h.04l.19,2.76h1.04v-7.7h-6.43v1.23Z"/><polygon class="cls-2" points="305.75 61.2 305.75 55.21 314.2 55.21 314.2 53.98 305.75 53.98 305.75 48.51 314.78 48.51 314.78 47.28 304.31 47.28 304.31 62.43 314.88 62.43 314.88 61.2 305.75 61.2"/><polygon class="cls-2" points="253.25 57.05 259.53 57.05 259.53 55.78 253.25 55.78 253.25 52.05 259.96 52.05 259.96 50.79 251.82 50.79 251.82 62.42 260.04 62.42 260.04 61.15 253.25 61.15 253.25 57.05"/><path class="cls-3" d="m316.5,73.93v-.65h4.61v.65h-1.92v5.12h-.77v-5.12h-1.92Z"/><path class="cls-3" d="m322.81,73.29l1.82,4.84,1.82-4.84h1.05v5.76h-.73v-4.8h-.02l-1.8,4.8h-.65l-1.8-4.8h-.02v4.8h-.73v-5.76h1.05Z"/><path class="cls-4" d="m323.33,49.9c0,.5-.09.95-.26,1.36-.17.41-.41.76-.71,1.05-.3.29-.65.52-1.04.68-.39.16-.81.24-1.24.24-.48,0-.92-.08-1.32-.25-.4-.17-.74-.4-1.03-.7-.29-.3-.51-.65-.67-1.05-.16-.41-.24-.84-.24-1.32,0-.5.09-.95.26-1.36.17-.41.41-.76.71-1.05.3-.29.65-.52,1.04-.68s.81-.24,1.25-.24.85.08,1.24.24c.39.16.74.38,1.04.68.3.29.54.64.71,1.05.17.41.26.86.26,1.36Zm-.71,0c0-.4-.07-.77-.2-1.11-.13-.34-.31-.63-.54-.87-.23-.24-.5-.43-.81-.56-.31-.13-.64-.2-.99-.2s-.7.07-1.01.2c-.31.13-.58.32-.81.56-.23.24-.41.53-.54.87-.13.34-.2.71-.2,1.11,0,.38.06.73.18,1.07.12.33.29.62.51.87.22.25.49.45.8.59.31.15.67.22,1.07.22.36,0,.69-.07.99-.2.31-.13.58-.32.81-.56.23-.24.41-.53.54-.87.13-.33.2-.71.2-1.11Zm-3.2,1.9h-.6v-3.68h1.39c.44,0,.78.08,1,.25.23.17.34.44.34.81,0,.33-.09.57-.28.73-.18.15-.41.25-.68.28l1.03,1.62h-.68l-.95-1.57h-.57v1.57Zm.67-2.09c.11,0,.22,0,.32-.01.1,0,.19-.03.27-.08.08-.04.14-.1.19-.17.05-.07.07-.18.07-.32,0-.11-.03-.2-.08-.27-.05-.07-.11-.12-.19-.15-.08-.04-.16-.06-.26-.07-.1,0-.19-.01-.28-.01h-.73v1.07h.67Z"/></svg>