<?xml version="1.0" encoding="UTF-8"?><svg id="Layer_1" xmlns="http://www.w3.org/2000/svg" viewBox="0 0 175 175"><defs><style>.cls-1{fill:#414141;}.cls-1,.cls-2{stroke-width:0px;}.cls-2{fill:#ea1c2d;}</style></defs><path class="cls-1" d="m9.33,159.64h-1.83l3.23-19.95h2.4l2.8,19.95h-1.85s-.55-4.4-.63-4.9h-3.42c-.05.52-.7,4.9-.7,4.9Zm2.77-14.52c0-.4-.25-3.37-.25-3.37,0,0-.27,2.95-.3,3.35-.05.55-1.2,7.92-1.2,7.92h2.82s-1.08-7.5-1.08-7.9Z"/><path class="cls-1" d="m28.04,159.64h-2s-1.95-14.47-1.97-16.55c0,2.07-2,16.55-2,16.55h-2l-2.53-19.95h1.88s1.8,14.9,1.8,16.87c0-1.97,1.88-16.87,1.88-16.87h2s1.88,14.92,1.88,16.87c0-1.95,1.88-16.87,1.88-16.87h1.78l-2.58,19.95Z"/><path class="cls-1" d="m34,159.64h-1.83l3.23-19.95h2.4l2.8,19.95h-1.85s-.55-4.4-.63-4.9h-3.42c-.05.52-.7,4.9-.7,4.9Zm2.77-14.52c0-.4-.25-3.37-.25-3.37,0,0-.27,2.95-.3,3.35-.05.55-1.2,7.92-1.2,7.92h2.82s-1.08-7.5-1.08-7.9Z"/><path class="cls-1" d="m50.49,148.52c-.25.62-.75,1.27-1.23,1.4l2.25,9.73h-1.97l-2.02-9.22-1.85.03v9.2h-1.8v-19.95h3.9c1.62,0,2.42.8,2.82,2.12.2.63.3,1.78.3,3.33s-.13,2.65-.4,3.38Zm-1.63-5.78c-.13-.78-.57-1.32-1.32-1.32h-1.85v7.32s1.82,0,2-.02c.57-.05.9-.38,1.05-.8.18-.45.25-1.78.25-2.53,0-.95-.08-2.37-.13-2.65Z"/><path class="cls-1" d="m58.69,159.64h-3.8v-19.95h3.5c1.8,0,3.02.8,3.4,1.97.42,1.32.52,3.4.52,7.57s-.07,7.2-.5,8.37c-.42,1.15-1.27,2.02-3.13,2.02Zm1.78-10.4c0-2.85-.1-5.5-.28-6.25-.2-1.03-.92-1.52-1.82-1.52h-1.63v16.5h1.85c.75,0,1.22-.35,1.55-1.17.28-.7.33-4.97.33-7.55Z"/><polygon class="cls-2" points="86.6 78.45 103.17 51.32 87.96 42.03 86.6 78.45"/><polygon class="cls-2" points="115.46 49.62 106.65 51.47 120.13 59.71 115.46 49.62"/><polygon class="cls-2" points="104.61 52.2 87.89 79.58 119.8 61.48 104.61 52.2"/><polygon class="cls-2" points="88.92 40.65 102.73 49.08 99.85 40.37 88.92 40.65"/><polygon class="cls-2" points="114.74 48.06 111.01 40.01 101.59 40.28 104.85 50.14 114.74 48.06"/><polygon class="cls-2" points="121.45 62.48 89.83 80.41 128.72 66.92 121.45 62.48"/><polygon class="cls-2" points="122.5 61.15 129.49 65.42 125.53 49.02 122.5 61.15"/><polygon class="cls-2" points="86.32 41.03 79.03 36.58 84.93 78.27 86.32 41.03"/><polygon class="cls-2" points="124.31 46.92 112.81 39.9 121.43 58.51 124.31 46.92"/><polygon class="cls-2" points="86.52 39.18 96.35 31.26 80.01 35.21 86.52 39.18"/><polygon class="cls-2" points="89.49 38.95 110.27 38.35 98.87 31.39 89.49 38.95"/><path class="cls-1" d="m15.93,25.06c-.05-.19-.09-.4-.12-.62-.03-.23-.04-.45-.05-.67,0-.22-.02-.41-.03-.57-.02-.28-.06-.55-.11-.79-.06-.25-.16-.48-.29-.67-.14-.2-.32-.36-.53-.49-.09-.05-.2-.1-.31-.14.4-.16.72-.41.95-.74.32-.45.48-.99.48-1.6,0-.43-.08-.82-.24-1.14-.16-.32-.38-.59-.65-.8-.27-.2-.58-.36-.94-.45-.35-.1-.72-.15-1.11-.15h-4.35v9.48h1.16v-4.08h3.18c.39-.02.68.05.89.18.21.14.38.33.49.55.12.24.19.51.23.82.04.31.06.63.08.97,0,.09.02.21.03.33,0,.13.02.26.03.4.01.14.04.28.07.41.03.14.08.26.14.36l.04.07h1.36l-.2-.24c-.08-.1-.15-.23-.2-.42Zm-1.18-6.11c0,.26-.05.49-.15.69-.1.2-.23.37-.4.51-.16.14-.36.25-.58.32h0c-.23.08-.46.12-.71.12h-3.13v-3.33h3.13c.63,0,1.1.15,1.39.45.3.3.45.71.45,1.24Z"/><path class="cls-1" d="m24.66,17.54c-.37-.46-.84-.82-1.4-1.09-.56-.27-1.21-.41-1.95-.41s-1.4.14-1.96.41c-.56.27-1.03.64-1.41,1.09-.37.45-.65.98-.84,1.57-.18.59-.28,1.21-.28,1.86s.09,1.27.28,1.86c.18.59.47,1.12.84,1.57.37.45.85.82,1.41,1.09.56.27,1.22.41,1.96.41s1.4-.14,1.95-.41c.56-.27,1.03-.63,1.4-1.09.37-.45.65-.98.84-1.57.18-.59.28-1.21.28-1.86s-.09-1.27-.28-1.86c-.19-.59-.47-1.12-.84-1.57Zm-.05,3.43c0,.48-.07.97-.19,1.44-.13.47-.33.89-.6,1.25-.26.36-.61.66-1.02.88-.41.22-.91.33-1.5.33s-1.09-.11-1.5-.33c-.42-.22-.76-.52-1.03-.88-.27-.37-.47-.79-.6-1.25-.13-.47-.19-.95-.19-1.44s.07-.98.19-1.44c.13-.46.33-.88.6-1.25.27-.36.61-.66,1.03-.88.41-.22.92-.33,1.5-.33s1.09.11,1.5.33c.41.22.76.52,1.02.88.27.37.47.79.6,1.25.13.47.19.95.19,1.44Z"/><polygon class="cls-1" points="33.92 16.23 32.53 16.23 29.59 20.77 26.69 16.3 26.65 16.23 25.27 16.23 29 21.82 29 25.71 30.16 25.71 30.16 21.82 33.87 16.31 33.92 16.23"/><path class="cls-1" d="m37.18,16.23h-1.17l-3.73,9.28-.08.2h1.24l1.11-2.86h3.99l1.12,2.86h1.25l-3.68-9.39-.04-.09Zm.94,5.59h-3.2l1.63-4.17,1.57,4.17Z"/><polygon class="cls-1" points="42.75 16.23 41.59 16.23 41.59 25.71 47.9 25.71 47.9 24.67 42.75 24.67 42.75 16.23"/><polygon class="cls-1" points="53.75 16.23 52.59 16.23 52.59 25.71 58.9 25.71 58.9 24.67 53.75 24.67 53.75 16.23"/><path class="cls-1" d="m73.56,19c0-.43-.07-.82-.2-1.16-.14-.34-.33-.64-.59-.88-.25-.24-.56-.42-.91-.55-.35-.12-.74-.18-1.17-.18h-4.22v9.48h1.16v-3.94h3.06c.43,0,.82-.06,1.17-.18.35-.12.66-.31.91-.55.26-.24.45-.54.59-.88.13-.34.2-.73.2-1.16Zm-1.16,0c0,.59-.17,1.02-.51,1.3-.35.29-.82.43-1.39.43h-2.87v-3.47h2.87c.57,0,1.04.15,1.39.43.34.28.51.72.51,1.3Z"/><path class="cls-1" d="m77.8,16.23h-1.17l-3.78,9.41-.03.07h1.24l1.11-2.86h3.99l1.12,2.86h1.25l-3.68-9.39-.04-.09Zm.94,5.59h-3.2l1.63-4.17,1.57,4.17Z"/><path class="cls-1" d="m85.75,21.78h3.13c0,.42-.07.81-.19,1.16-.13.39-.33.73-.59,1.02-.26.28-.58.51-.96.67-.38.16-.82.24-1.3.24-.58,0-1.09-.11-1.5-.33-.42-.22-.76-.52-1.03-.88-.27-.37-.47-.79-.6-1.25-.13-.47-.19-.95-.19-1.44s.07-.98.19-1.44c.13-.46.33-.88.6-1.25.27-.36.61-.66,1.03-.88.41-.22.92-.33,1.5-.33.42,0,.8.07,1.13.2.33.13.63.31.87.52.24.21.43.45.57.7.14.25.22.5.25.75v.13h1.19l-.03-.17c-.09-.52-.25-.99-.49-1.38-.24-.39-.54-.72-.88-.99-.35-.27-.75-.47-1.19-.6-.44-.13-.91-.2-1.41-.2-.74,0-1.4.14-1.96.41-.56.27-1.03.64-1.41,1.09-.37.45-.65.98-.84,1.57-.18.59-.28,1.21-.28,1.86s.09,1.27.28,1.86c.18.59.47,1.12.84,1.57.37.45.85.82,1.41,1.09.56.27,1.22.41,1.96.41.34,0,.68-.04,1-.11.33-.07.63-.19.92-.34.29-.16.55-.36.79-.61.14-.14.27-.31.38-.49l.09,1.32v.05h.91v-4.96h-4.19v1.03Z"/><polygon class="cls-1" points="92.67 24.67 92.67 21.33 97.79 21.33 97.79 20.3 92.67 20.3 92.67 17.27 98.14 17.27 98.14 16.23 91.5 16.23 91.5 25.71 98.2 25.71 98.2 24.67 92.67 24.67"/><polygon class="cls-1" points="60.82 22.44 64.64 22.44 64.64 21.39 60.82 21.39 60.82 19.42 64.9 19.42 64.9 18.36 59.67 18.36 59.67 25.7 64.94 25.7 64.94 24.65 60.82 24.65 60.82 22.44"/><path class="cls-1" d="m101.81,17.14c.16-.36.37-.67.64-.93.27-.26.59-.47.95-.62.36-.15.74-.22,1.15-.22s.79.07,1.15.22c.36.15.67.36.94.62.27.27.48.58.64.93.16.36.24.75.24,1.16s-.08.82-.24,1.18c-.16.36-.37.67-.64.94-.27.27-.58.47-.94.62-.36.15-.74.22-1.15.22s-.79-.07-1.15-.22-.68-.35-.95-.62c-.27-.27-.49-.58-.64-.94-.16-.36-.24-.76-.24-1.18s.08-.8.24-1.16Zm.49,2.17c.12.31.29.58.51.8s.48.4.78.53c.3.13.62.2.97.2s.66-.07.96-.2c.29-.13.55-.31.77-.53s.39-.49.51-.8.19-.64.19-1.01-.06-.68-.19-.99c-.12-.3-.3-.57-.51-.79s-.48-.4-.77-.53c-.3-.13-.62-.19-.96-.19s-.67.06-.97.19c-.3.13-.56.31-.78.53s-.39.49-.51.79c-.12.31-.19.64-.19.99s.06.7.19,1.01Zm2.44-2.72c.41,0,.72.08.91.24.2.16.3.41.3.74,0,.31-.09.54-.26.68-.17.14-.39.23-.65.25l.99,1.53h-.58l-.94-1.49h-.57v1.49h-.54v-3.45h1.34Zm-.24,1.53c.12,0,.24,0,.34-.01s.2-.03.29-.07.15-.09.2-.17c.05-.08.08-.18.08-.32,0-.12-.02-.21-.07-.28-.05-.07-.1-.12-.18-.16-.07-.04-.15-.06-.24-.08-.09-.01-.18-.02-.27-.02h-.71v1.1h.56Z"/><path class="cls-1" d="m21.97,53.27c-.64,1.51-1.62,2.84-2.78,3.13l5.15,23.05h-3.3l-4.75-22.24-4.69.06v22.18h-2.95v-46.22h7.7c3.65,0,5.33,2.08,5.97,5.39.35,1.91.52,3.59.52,7.01,0,3.65-.35,6.43-.87,7.65Zm-2.61-13.78c-.35-1.97-1.39-3.3-3.19-3.3h-4.58v18.3s4.46,0,4.92-.06c1.39-.12,2.14-1.04,2.49-2.08.46-1.16.7-4.34.7-6.26,0-2.49-.23-5.97-.35-6.6Z"/><path class="cls-1" d="m30.91,79.45v-46.22h13.26v2.9h-10.31v18.53h9.44v2.84h-9.44v19.11h10.43v2.84h-13.38Z"/><path class="cls-1" d="m58.38,79.45h-7.47v-46.22h7.24c4,0,6.14,1.74,7.07,4.75.81,2.55.98,8.4.98,17.43,0,5.21-.12,16.33-1.04,19.46-.75,2.49-2.14,4.58-6.78,4.58Zm4.75-24.09c0-7.3-.17-13.15-.64-15.47-.46-2.43-2.03-3.82-4.17-3.82h-4.46v40.6h4.92c2.2,0,3.3-1.16,3.65-2.66.46-1.91.7-13.84.7-18.65Z"/><path class="cls-1" d="m16.12,132.67h-7.47v-46.22h7.24c4,0,6.14,1.74,7.07,4.75.81,2.55.98,8.4.98,17.43,0,5.21-.12,16.33-1.04,19.46-.75,2.49-2.14,4.58-6.78,4.58Zm4.75-24.1c0-7.3-.17-13.15-.64-15.46-.46-2.43-2.03-3.82-4.17-3.82h-4.46v40.6h4.92c2.2,0,3.3-1.16,3.65-2.66.46-1.91.7-13.84.7-18.65Z"/><path class="cls-1" d="m31.09,132.67v-46.22h3.01v46.22h-3.01Z"/><path class="cls-1" d="m43.31,132.67h-2.95l7.36-46.22h3.76l6.31,46.22h-2.95l-1.51-11.35h-8.28l-1.74,11.35Zm6.66-35.16c-.23-1.56-.52-7.76-.52-7.76,0,0-.35,6.31-.58,7.82-.17,1.22-3.48,21.08-3.48,21.08h7.59s-2.84-19.93-3.01-21.14Z"/><path class="cls-1" d="m81.8,132.67v-26.47l.06-9.96-6.26,36.43h-2.9l-5.91-36.43.06,9.96v26.47h-2.72v-46.22h3.82l6.31,38.86,6.55-38.86h3.76v46.22h-2.78Z"/><path class="cls-1" d="m108.36,109.68c0,19.23-1.74,23.4-8.28,23.4s-8.28-3.65-8.28-23.4c0-17.14.64-23.46,8.28-23.46s8.28,6.02,8.28,23.46Zm-3.07,0c0-16.57-.4-20.56-5.21-20.56-4.52,0-5.21,3.82-5.21,20.56s.7,20.68,5.21,20.68,5.21-4.11,5.21-20.68Z"/><path class="cls-1" d="m127.15,132.67l-8.86-37.3v37.3h-2.72v-46.22h3.42l8.69,36.95v-36.95h2.78v46.22h-3.3Z"/><path class="cls-1" d="m145.68,132.67h-7.47v-46.22h7.24c4,0,6.14,1.74,7.07,4.75.81,2.55.98,8.4.98,17.43,0,5.21-.12,16.33-1.04,19.46-.75,2.49-2.14,4.58-6.78,4.58Zm4.75-24.1c0-7.3-.17-13.15-.64-15.46-.46-2.43-2.03-3.82-4.17-3.82h-4.46v40.6h4.92c2.2,0,3.3-1.16,3.65-2.66.46-1.91.7-13.84.7-18.65Z"/><path class="cls-1" d="m156.44,86.87v-.65h4.63v.65h-1.93v5.14h-.77v-5.14h-1.93Z"/><path class="cls-1" d="m162.79,86.22l1.83,4.87,1.83-4.87h1.06v5.79h-.73v-4.82h-.02l-1.81,4.82h-.66l-1.81-4.82h-.02v4.82h-.73v-5.79h1.06Z"/></svg>