<?xml version="1.0" encoding="utf-8"?>
<!-- Generator: Adobe Illustrator 28.0.0, SVG Export Plug-In . SVG Version: 6.00 Build 0)  -->
<svg version="1.1" id="Layer_3" xmlns="http://www.w3.org/2000/svg" xmlns:xlink="http://www.w3.org/1999/xlink" x="0px" y="0px"
	 viewBox="0 0 346.3 175" style="enable-background:new 0 0 346.3 175;" xml:space="preserve">
<style type="text/css">
	.st0{fill:url(#SVGID_1_);}
</style>
<linearGradient id="SVGID_1_" gradientUnits="userSpaceOnUse" x1="173.1275" y1="152.5" x2="173.1275" y2="22.5">
	<stop  offset="0" style="stop-color:#4D4D4F"/>
	<stop  offset="2.835977e-02" style="stop-color:#5D5E60"/>
	<stop  offset="9.448135e-02" style="stop-color:#7A7C7E"/>
	<stop  offset="0.1638" style="stop-color:#919396"/>
	<stop  offset="0.236" style="stop-color:#A3A6A8"/>
	<stop  offset="0.3124" style="stop-color:#B1B3B5"/>
	<stop  offset="0.396" style="stop-color:#B9BBBD"/>
	<stop  offset="0.5" style="stop-color:#BCBEC0"/>
	<stop  offset="1" style="stop-color:#4D4D4F"/>
</linearGradient>
<path class="st0" d="M53.5,48.3c-0.3-0.2-0.6-0.5-0.9-0.8c-0.2-0.2-0.4-0.4-0.6-0.5c-0.2-0.1-0.4-0.1-0.5-0.2c-0.2,0-0.3,0-0.4,0
	c-0.1,0-0.2,0.1-0.3,0.2l0,0c0-0.1,0.1-0.2,0.1-0.3c0.1-0.1,0.1-0.3,0.1-0.5c0-0.2,0-0.4-0.1-0.7c-0.1-0.2-0.2-0.5-0.5-0.8
	c-0.4-0.5-0.9-0.7-1.4-0.7c-0.5,0-1.1,0.3-1.7,0.8l-2.6,2.4l5,5.5l1-0.9l-2.1-2.2l1.4-1.3c0.2-0.2,0.4-0.3,0.6-0.4
	c0.2-0.1,0.4-0.1,0.6,0c0.2,0,0.4,0.1,0.6,0.3c0.2,0.2,0.4,0.4,0.6,0.6c0.1,0.1,0.3,0.3,0.4,0.4c0.1,0.1,0.3,0.2,0.5,0.3l1-0.9
	C54.1,48.7,53.8,48.6,53.5,48.3z M49.4,47.6l-1.6,1.4l-1.6-1.7l1.6-1.4c0.1-0.1,0.2-0.2,0.4-0.3c0.1-0.1,0.3-0.1,0.4-0.2
	c0.1,0,0.3,0,0.4,0.1c0.2,0.1,0.3,0.2,0.5,0.4c0.3,0.3,0.4,0.6,0.4,0.9C49.9,47.1,49.7,47.4,49.4,47.6z M59.6,42.4
	c-0.1-0.5-0.3-0.9-0.6-1.4c-0.3-0.4-0.6-0.8-1-1.1c-0.4-0.3-0.8-0.5-1.3-0.6c-0.4-0.1-0.9-0.2-1.4-0.1c-0.5,0.1-1,0.3-1.4,0.6
	c-0.5,0.3-0.8,0.7-1.1,1.1s-0.4,0.9-0.5,1.3c-0.1,0.5,0,0.9,0.1,1.4c0.1,0.5,0.3,0.9,0.6,1.4c0.3,0.4,0.6,0.8,1,1.1
	c0.4,0.3,0.8,0.5,1.3,0.6c0.4,0.1,0.9,0.2,1.4,0.1c0.5-0.1,0.9-0.3,1.4-0.6c0.5-0.3,0.8-0.7,1.1-1.1c0.3-0.4,0.4-0.8,0.5-1.3
	C59.8,43.4,59.8,42.9,59.6,42.4z M58.3,44.6c-0.2,0.3-0.4,0.5-0.7,0.8c-0.3,0.2-0.7,0.3-1,0.4c-0.3,0-0.6,0-0.9-0.2
	c-0.3-0.1-0.6-0.3-0.8-0.5c-0.3-0.2-0.5-0.5-0.7-0.8c-0.2-0.3-0.3-0.6-0.5-0.9c-0.1-0.3-0.2-0.7-0.2-1c0-0.3,0.1-0.6,0.2-0.9
	c0.2-0.3,0.4-0.5,0.7-0.8c0.3-0.2,0.7-0.3,1-0.4c0.3,0,0.6,0,0.9,0.1c0.3,0.1,0.6,0.3,0.8,0.5c0.3,0.2,0.5,0.5,0.7,0.8
	c0.2,0.3,0.3,0.6,0.5,0.9c0.1,0.3,0.2,0.7,0.2,1C58.5,44,58.5,44.3,58.3,44.6z M62.7,40.2l-4.4-2.9l1.4-0.6l3.2,2.2l0.4-3.8l1.3-0.6
	l-0.6,5.2l1.2,2.6l-1.2,0.5L62.7,40.2z M69.1,32.9l-1.3,0.4l-0.5,7.9l1.3-0.4l0.1-2.1l2.8-0.9l1.2,1.7l1.3-0.4L69.1,32.9z
	 M68.6,37.7l0.1-3.4l0,0l2,2.7L68.6,37.7z M74.1,31.7l1.3-0.2l1,6.2l3.7-0.6l0.2,1.1l-5,0.8L74.1,31.7z M85.5,30.6l1.3,0.1l-0.3,6.3
	l3.8,0.2l0,1.1l-5-0.2L85.5,30.6z M104.2,34.7c-0.1-0.3-0.3-0.5-0.6-0.8c-0.3-0.2-0.7-0.4-1.2-0.6l-3.1-1l-2.2,7.1l1.2,0.4l0.8-2.7
	l1.9,0.6c0.5,0.2,0.9,0.2,1.3,0.2c0.4,0,0.7-0.1,0.9-0.3c0.2-0.2,0.4-0.4,0.6-0.6c0.1-0.2,0.2-0.5,0.3-0.7c0.1-0.2,0.1-0.5,0.1-0.7
	C104.4,35.2,104.4,35,104.2,34.7z M103,35.9c-0.1,0.2-0.2,0.4-0.3,0.5c-0.1,0.1-0.3,0.2-0.4,0.3c-0.1,0.1-0.3,0.1-0.5,0.1
	c-0.2,0-0.3,0-0.4-0.1l-1.8-0.6l0.7-2.3l1.8,0.6c0.2,0.1,0.3,0.1,0.5,0.2c0.1,0.1,0.2,0.2,0.3,0.3c0.1,0.1,0.1,0.3,0.2,0.4
	C103.1,35.4,103.1,35.6,103,35.9z M108.7,35.7l-5.7,5.5l1.2,0.6l1.5-1.5l2.7,1.3l-0.2,2.1l1.3,0.6l0.6-7.9L108.7,35.7z M108.4,40.5
	l-2-1l2.4-2.4l0,0L108.4,40.5z M115.5,48.3l-0.7-0.5l0.3-0.8c-0.5,0.1-0.9,0.2-1.3,0.1c-0.4-0.1-0.7-0.2-1.1-0.5
	c-0.5-0.3-0.8-0.7-1.1-1.1c-0.2-0.4-0.4-0.9-0.5-1.3c-0.1-0.5,0-0.9,0.1-1.4c0.1-0.5,0.3-0.9,0.6-1.4c0.3-0.4,0.6-0.8,1-1.1
	c0.4-0.3,0.8-0.5,1.3-0.6c0.4-0.1,0.9-0.1,1.4-0.1c0.5,0.1,0.9,0.3,1.4,0.6c0.3,0.2,0.6,0.5,0.9,0.8c0.2,0.3,0.4,0.6,0.5,0.9
	c0.1,0.3,0.2,0.7,0.1,1.1c0,0.4-0.1,0.7-0.3,1.1l-1-0.7c0.1-0.2,0.2-0.4,0.2-0.7c0-0.2,0-0.4-0.1-0.6c-0.1-0.2-0.2-0.4-0.3-0.6
	c-0.1-0.2-0.3-0.3-0.5-0.5c-0.3-0.2-0.7-0.3-1-0.4c-0.3,0-0.6,0-0.9,0.1c-0.3,0.1-0.6,0.3-0.8,0.5c-0.3,0.2-0.5,0.5-0.7,0.8
	c-0.2,0.3-0.4,0.6-0.5,0.9c-0.1,0.3-0.2,0.7-0.2,1c0,0.3,0.1,0.6,0.2,0.9c0.1,0.3,0.4,0.5,0.7,0.8c0.3,0.2,0.5,0.3,0.8,0.4
	c0.3,0.1,0.5,0.1,0.8,0c0.2,0,0.5-0.2,0.7-0.3c0.2-0.2,0.4-0.4,0.6-0.6l-1.6-1.1l0.6-0.8l2.6,1.8L115.5,48.3z M122,44.1l3.9,3.6
	l-0.8,0.8l-3-2.7l-1.3,1.4l2.7,2.5l-0.7,0.8l-2.7-2.5l-1.5,1.6l3,2.8l-0.8,0.8l-4-3.7L122,44.1z M101.6,76.7
	c-7.6,3.9-16.2,6.4-25.5,7.4c2.2-4.1,4.7-8,7.6-11.6c3-3.8,6.5-7.1,10.4-10.1c3,3,4.9,6,5.9,7.5c0.6,1,0.8,1.2,1.2,1.2l0.5-0.1
	l0.1-0.4c0.3-0.9-2.3-5.8-5.8-9.6c4.9-3.6,10-5.7,14-5.7c2.6,0,4.6,0.9,5.9,2.6c1,1.3,1.3,2.8,0.9,4.5
	C115.6,67.8,107.9,73.4,101.6,76.7L101.6,76.7z M48.2,70.9c-0.4-4.1,1.3-8,4.9-11.6c3.6-3.7,8.6-5.8,14.8-6.4
	c1.1-0.1,2.2-0.2,3.2-0.2c3.4,0,6.8,0.5,10.1,1.5c4.1,1.2,7.7,3.3,10.8,6.1c-1.4,1-2.9,2-4.5,3.3c-1.8,1.4-3.7,3-5.6,4.7
	c-2.7,2.4-5.2,5-7.7,7.8c-2.4,2.7-4.4,5.5-5.9,8.4c-0.7,0-1.4,0-2.1-0.1c-0.8,0-1.7-0.2-2.6-0.3c-3.6-0.6-7.1-2.1-10.3-4.3
	C50.3,77.5,48.6,74.6,48.2,70.9z M60,52.4c7.1-5,15.7-8,25-8c9.6,0,18.4,3.1,25.6,8.4c-0.2,0-0.4,0-0.6,0c-4.6,0-10.1,2.1-16,6.2
	c-2-1.9-4.3-3.5-6.7-4.7c-2.6-1.3-5.2-2.2-7.8-2.9c-1.9-0.5-3.8-0.8-5.6-0.9c-1.8-0.1-3.6-0.1-5.2,0C65.5,50.8,62.6,51.4,60,52.4z
	 M128.1,87.5c0,22-16.6,40.2-38,42.8c-1.8-2.1-4.5-5.7-5.7-10.4c0.9-0.2,1.8-0.4,2.7-0.6c1.1-0.3,2.2-0.7,3.4-1.2
	c4.6-2.1,8.8-5.2,12.5-9.3c3.7-4.2,5.4-8.5,5-13c-0.2-2.4-1.1-4.4-2.7-5.9c-1.6-1.6-3.8-2.2-6.6-2c-5.6,0.5-10.2,3.5-13.6,8.8
	c-3.4,5.3-4.8,11.7-4.1,19.2c0,0.3,0.1,0.6,0.1,0.8c0.1,0.2,0.1,0.4,0.1,0.6c0,0.2,0.1,0.4,0.2,0.5c0,0,0,0,0,0c0,0.1,0,0.2,0.1,0.3
	c-3.8,0.2-6.4-0.5-7.8-1.9c-1.5-1.5-2.4-4.1-2.8-7.8c-0.3-3.4-0.1-6.8,0.6-10.1c0.7-3.2,1.7-6.4,2.8-9.5c1.6-0.2,3.3-0.5,5-0.9
	c1.8-0.4,3.6-0.8,5.4-1.3c6.1-1.7,12.1-4.2,18-7.4l0.4-0.1l0.1,0c11.8-6.3,15.3-12.1,16.1-15.9c0.1-0.4,0.1-0.9,0.2-1.3
	C124.9,68.9,128.1,77.9,128.1,87.5z M84,117.8l-0.1-1.4c-0.1-0.8-0.1-1.6-0.1-2.4c0-0.8,0.1-1.6,0.2-2.4c0.5-4.3,2-8.5,4.4-12.4
	c2.4-3.9,5.1-6.5,8.1-7.9c0.4-0.2,0.9-0.4,1.4-0.5c0.5-0.1,1-0.2,1.4-0.3c0.3,0,0.6,0,0.9,0c1.5,0,2.7,0.4,3.5,1.2
	c1,1,1.6,2.4,1.8,4.2c0.4,3.8-1.1,7.5-4.2,11.2c-3.2,3.7-6.8,6.6-10.8,8.5c-1.2,0.6-2.4,1.1-3.6,1.5C85.9,117.3,84.9,117.6,84,117.8
	z M87.9,130.5c-1,0.1-1.9,0.1-2.9,0.1c-23.8,0-43.1-19.3-43.1-43.1c0-6.1,1.3-11.9,3.6-17.2c0,0.8,0,1.7,0.1,2.6
	c0.5,4.9,2.9,9,7.1,12c4,2.8,8.5,4.3,13.4,4.4c0,0.1,0,0.1-0.1,0.2c-0.5,1.1-1,2.4-1.4,3.8c-0.5,1.4-0.8,2.9-1.1,4.3
	c-0.3,1.3-0.5,2.6-0.6,3.8c-0.1,1.2-0.1,2.4,0,3.5c0.5,5.1,2.4,9.1,5.8,11.9c3.3,2.7,7.7,3.9,13.4,3.4
	C83.2,124.8,85.8,128.3,87.9,130.5z M85.2,152.5c-35.8,0-65-29.2-65-65s29.2-65,65-65s65,29.2,65,65S121,152.5,85.2,152.5z
	 M85.2,23.8c-35.1,0-63.7,28.6-63.7,63.7c0,35.1,28.6,63.7,63.7,63.7s63.7-28.6,63.7-63.7C148.9,52.4,120.3,23.8,85.2,23.8z M96,38
	l-0.2,1l-4.4-0.7l1-5.9l4.3,0.7l-0.2,1l-3.2-0.5l-0.2,1.4l2.9,0.5l-0.2,1L93,35.9l-0.3,1.6L96,38z M37.2,99.6l0.3,1.2l-4.2,4.4l0,0
	l5-1.3l0.3,1.1l-6.8,1.8l-0.3-1.2l4.2-4.3l0,0l-5,1.3l-0.3-1.1L37.2,99.6z M39.8,107.7l-7.5,0.2l0.5,1.2l2-0.1l1.1,2.5l-1.5,1.3
	l0.5,1.2l5.4-5.1L39.8,107.7z M36.5,110.9l-0.8-1.9l3.2-0.2l0,0L36.5,110.9z M40.8,110.3l2.7,4.9l-0.9,0.5l-1.1-1.9l-5.2,2.8
	l-0.6-1.1l5.2-2.8l-1.1-1.9L40.8,110.3z M43.9,115.7l0.7,1l-5.8,3.8l-0.7-1L43.9,115.7z M47.9,121.2c-0.1-0.4-0.3-0.9-0.7-1.3
	c-0.3-0.4-0.7-0.7-1.1-0.9s-0.8-0.3-1.3-0.3c-0.4,0-0.9,0.1-1.3,0.2c-0.4,0.2-0.9,0.4-1.2,0.7c-0.4,0.3-0.7,0.7-1,1.1
	c-0.2,0.4-0.4,0.8-0.5,1.2c-0.1,0.4-0.1,0.9,0.1,1.3c0.1,0.4,0.3,0.9,0.7,1.3s0.7,0.7,1.1,0.9c0.4,0.2,0.8,0.3,1.3,0.3
	c0.4,0,0.9-0.1,1.3-0.2c0.4-0.2,0.9-0.4,1.2-0.7c0.4-0.3,0.7-0.7,0.9-1.1c0.2-0.4,0.4-0.8,0.5-1.2C48,122.1,48,121.6,47.9,121.2z
	 M46.8,122.3c-0.1,0.3-0.2,0.6-0.4,0.8c-0.2,0.3-0.4,0.5-0.7,0.7c-0.3,0.2-0.5,0.4-0.8,0.5c-0.3,0.1-0.6,0.2-0.9,0.2
	c-0.3,0-0.6,0-0.9-0.1c-0.3-0.1-0.5-0.3-0.8-0.6c-0.2-0.3-0.4-0.6-0.4-0.9c-0.1-0.3,0-0.6,0.1-0.9c0.1-0.3,0.2-0.6,0.4-0.8
	c0.2-0.3,0.4-0.5,0.7-0.7c0.3-0.2,0.5-0.4,0.8-0.5c0.3-0.1,0.6-0.2,0.9-0.2c0.3,0,0.6,0,0.9,0.1c0.3,0.1,0.5,0.3,0.8,0.6
	c0.2,0.3,0.4,0.6,0.4,0.9S46.9,122,46.8,122.3z M49.7,123.1l0.9,0.9l-1.2,5.9l0,0l3.5-3.7l0.9,0.8l-4.8,5.1l-0.9-0.9l1.2-5.9l0,0
	l-3.5,3.7l-0.9-0.8L49.7,123.1z M56.3,128.6l-6.2,4.1l1,0.7l1.6-1.1l2.3,1.6l-0.5,1.9l1.1,0.7l1.8-7.2L56.3,128.6z M55.2,133
	l-1.7-1.2l2.6-1.8l0,0L55.2,133z M59.9,131l1.1,0.6l-2.8,5.2l3.1,1.7l-0.5,0.9l-4.2-2.2L59.9,131z M69.8,137.7c0-0.2,0-0.4,0-0.6
	c0-0.2-0.1-0.4-0.2-0.5c-0.1-0.2-0.2-0.3-0.4-0.4c-0.2-0.1-0.4-0.2-0.6-0.3c-0.4-0.1-0.7-0.2-1-0.1c-0.3,0.1-0.6,0.2-0.8,0.3
	c-0.2,0.2-0.5,0.4-0.6,0.7c-0.2,0.3-0.3,0.6-0.4,0.9c-0.1,0.3-0.2,0.6-0.2,1s0,0.6,0.1,0.9c0.1,0.3,0.2,0.5,0.4,0.8
	c0.2,0.2,0.5,0.4,0.8,0.5c0.3,0.1,0.5,0.1,0.7,0.1c0.2,0,0.4-0.1,0.6-0.2c0.2-0.1,0.4-0.2,0.5-0.4c0.2-0.2,0.3-0.4,0.4-0.6l1.1,0.4
	c-0.2,0.4-0.4,0.7-0.6,1c-0.3,0.3-0.6,0.5-0.9,0.6c-0.3,0.1-0.7,0.2-1.1,0.2c-0.4,0-0.8,0-1.2-0.2c-0.5-0.2-0.9-0.4-1.2-0.7
	c-0.3-0.3-0.6-0.7-0.7-1.1c-0.2-0.4-0.2-0.8-0.2-1.3c0-0.5,0.1-0.9,0.3-1.4c0.2-0.5,0.4-0.9,0.7-1.2c0.3-0.4,0.6-0.7,1-0.9
	c0.4-0.2,0.8-0.3,1.3-0.4c0.5,0,0.9,0,1.4,0.2c0.4,0.1,0.7,0.3,1,0.5c0.3,0.2,0.5,0.5,0.7,0.7c0.2,0.3,0.3,0.6,0.4,0.9s0,0.7,0,1
	L69.8,137.7z M72.4,136.2l1.2,0.2l-0.5,2.7l3.1,0.6l0.5-2.7l1.2,0.2l-1.4,6.8l-1.2-0.2l0.6-3.1l-3.1-0.6l-0.6,3.1L71,143L72.4,136.2
	z M82.2,137.6l-1.3-0.1l-3.1,6.7l1.3,0.1l0.8-1.8l2.8,0.2l0.5,1.9l1.3,0.1L82.2,137.6z M80.2,141.6l1.2-2.9l0,0l0.9,3L80.2,141.6z
	 M85.3,137.6l1.2,0l0.2,6.9l-1.2,0L85.3,137.6z M94.2,143.1c-0.1-0.3-0.2-0.7-0.2-1.1c0-0.3-0.1-0.5-0.2-0.7
	c-0.1-0.2-0.2-0.3-0.3-0.4c-0.1-0.1-0.2-0.2-0.4-0.2c-0.1,0-0.2-0.1-0.3-0.1l0,0c0.1,0,0.1-0.1,0.3-0.1c0.1-0.1,0.2-0.2,0.4-0.3
	c0.1-0.1,0.2-0.3,0.3-0.6c0.1-0.2,0.1-0.5,0-0.8c-0.1-0.6-0.3-1-0.7-1.3c-0.4-0.3-1-0.4-1.8-0.3l-3.3,0.4l0.8,6.9l1.2-0.1l-0.3-2.8
	l1.8-0.2c0.3,0,0.5,0,0.7,0c0.2,0,0.3,0.1,0.5,0.3c0.1,0.1,0.2,0.3,0.3,0.5c0.1,0.2,0.1,0.5,0.2,0.8c0,0.2,0,0.3,0.1,0.5
	c0,0.2,0.1,0.3,0.2,0.5l1.3-0.2C94.4,143.6,94.3,143.4,94.2,143.1z M92.3,139.9c-0.2,0.2-0.5,0.3-0.9,0.4l-2,0.2l-0.3-2.1l2-0.2
	c0.2,0,0.3,0,0.5,0c0.1,0,0.3,0,0.4,0.1c0.1,0.1,0.2,0.2,0.3,0.3c0.1,0.1,0.1,0.3,0.2,0.5C92.5,139.4,92.4,139.7,92.3,139.9z
	 M94.3,136.8l1.7-0.5l3.3,4.7l0,0l0.4-5.7l1.6-0.5l1.9,6.6l-1.1,0.3l-1.4-5.1l0,0l-0.4,5.6l-1,0.3l-3.3-4.6l0,0l1.4,5.1l-1.1,0.3
	L94.3,136.8z M105.2,133.1l-1.2,0.5l0.4,7.4l1.2-0.5l-0.2-1.9l2.5-1.1l1.4,1.4l1.2-0.5L105.2,133.1z M105.3,137.6l-0.3-3.1l0,0
	l2.2,2.3L105.3,137.6z M107.8,131.9l1.1-0.7l5.4,2.6l0,0l-2.7-4.3l1-0.6l3.7,5.9l-1.1,0.7l-5.4-2.6l0,0l2.7,4.3l-1,0.6L107.8,131.9z
	 M114.9,129.9c0.2-0.2,0.2-0.3,0.2-0.5c0-0.2-0.1-0.4-0.3-0.5l-0.5,0.4l-0.8-1l1-0.7l0.8,1c0.2,0.3,0.3,0.6,0.3,1
	c0,0.3-0.2,0.6-0.4,0.9L114.9,129.9z M119.3,129.5c0.2,0.2,0.4,0.3,0.6,0.4c0.2,0.1,0.4,0.1,0.6,0.1c0.2,0,0.4-0.1,0.6-0.2
	c0.2-0.1,0.4-0.2,0.6-0.4c0.2-0.2,0.3-0.4,0.4-0.5c0.1-0.2,0.2-0.3,0.2-0.5c0-0.2,0-0.3,0-0.4c0-0.1-0.1-0.2-0.2-0.3
	c-0.2-0.2-0.4-0.3-0.5-0.3c-0.2,0-0.3,0-0.5,0.1c-0.2,0.1-0.5,0.2-0.8,0.4c-0.3,0.2-0.7,0.4-1.1,0.6c-0.3,0.1-0.5,0.2-0.8,0.3
	c-0.2,0-0.4,0-0.6,0c-0.2,0-0.4-0.1-0.5-0.2c-0.2-0.1-0.3-0.2-0.4-0.3c-0.2-0.3-0.4-0.5-0.5-0.8c-0.1-0.3-0.1-0.6,0-0.9
	c0.1-0.3,0.2-0.6,0.4-0.8c0.2-0.3,0.4-0.5,0.6-0.7c0.3-0.2,0.6-0.4,0.9-0.6c0.3-0.1,0.6-0.2,0.9-0.3c0.3,0,0.6,0,0.9,0.1
	c0.3,0.1,0.6,0.3,0.8,0.6l-0.9,0.8c-0.3-0.3-0.7-0.4-1-0.4s-0.6,0.2-1,0.5c-0.1,0.1-0.2,0.2-0.3,0.3c-0.1,0.1-0.2,0.2-0.2,0.4
	c0,0.1-0.1,0.3,0,0.4c0,0.1,0.1,0.3,0.2,0.4c0.2,0.2,0.4,0.3,0.6,0.3c0.2,0,0.4-0.1,0.7-0.2c0,0,0.1-0.1,0.3-0.1
	c0.2-0.1,0.4-0.2,0.6-0.3c0.2-0.1,0.4-0.2,0.6-0.3c0.2-0.1,0.3-0.2,0.4-0.2c0.2-0.1,0.4-0.2,0.6-0.2c0.2,0,0.4,0,0.6,0
	c0.2,0,0.4,0.1,0.5,0.2c0.2,0.1,0.3,0.2,0.4,0.3c0.3,0.3,0.4,0.6,0.5,0.9c0.1,0.3,0.1,0.6,0,0.9c-0.1,0.3-0.2,0.6-0.4,0.9
	c-0.2,0.3-0.4,0.5-0.7,0.8c-0.3,0.3-0.6,0.5-0.9,0.6c-0.3,0.2-0.7,0.3-1,0.3c-0.3,0-0.7,0-1-0.1c-0.3-0.1-0.6-0.3-0.9-0.7
	L119.3,129.5z M126.3,118.3c-0.2-0.1-0.4-0.1-0.6-0.2c-0.2,0-0.4,0-0.6,0c-0.2,0-0.4,0.1-0.5,0.2c-0.2,0.1-0.3,0.3-0.5,0.5
	c-0.2,0.3-0.4,0.6-0.4,0.9c0,0.3,0,0.6,0.1,0.9c0.1,0.3,0.2,0.6,0.5,0.8c0.2,0.3,0.4,0.5,0.7,0.7s0.6,0.4,0.9,0.5
	c0.3,0.1,0.6,0.2,0.9,0.2c0.3,0,0.6,0,0.9-0.2c0.3-0.1,0.5-0.3,0.8-0.6c0.2-0.2,0.3-0.4,0.3-0.7c0.1-0.2,0.1-0.4,0-0.7
	c0-0.2-0.1-0.4-0.3-0.6c-0.1-0.2-0.3-0.4-0.5-0.6l0.7-0.9c0.3,0.3,0.6,0.6,0.8,0.9c0.2,0.3,0.3,0.7,0.3,1c0,0.4,0,0.7-0.1,1.1
	c-0.1,0.4-0.3,0.7-0.5,1c-0.3,0.4-0.7,0.7-1.1,0.9c-0.4,0.2-0.8,0.3-1.3,0.4c-0.4,0-0.9,0-1.3-0.2c-0.4-0.1-0.9-0.4-1.3-0.7
	c-0.4-0.3-0.7-0.6-1-1c-0.3-0.4-0.4-0.8-0.5-1.2c-0.1-0.4-0.1-0.9,0-1.3c0.1-0.4,0.3-0.9,0.6-1.3c0.2-0.3,0.5-0.6,0.8-0.8
	c0.3-0.2,0.6-0.4,0.9-0.4c0.3-0.1,0.7-0.1,1-0.1c0.3,0,0.7,0.2,1,0.4L126.3,118.3z M125.7,115.3l0.6-1l5.1,2.9l1.8-3l0.9,0.5
	l-2.4,4.1L125.7,115.3z M128.3,110.9l0.5-1.1l3.8,1.6c0.2,0.1,0.4,0.2,0.7,0.2c0.2,0.1,0.5,0.1,0.7,0.1c0.2,0,0.4-0.1,0.6-0.3
	c0.2-0.2,0.4-0.4,0.5-0.8c0.2-0.4,0.2-0.7,0.2-0.9c0-0.2-0.1-0.5-0.2-0.6c-0.1-0.2-0.3-0.3-0.5-0.4c-0.2-0.1-0.4-0.2-0.6-0.3
	l-3.8-1.6l0.5-1.1l4.1,1.7c0.4,0.2,0.7,0.4,1,0.6c0.3,0.3,0.4,0.5,0.5,0.9c0.1,0.3,0.1,0.7,0.1,1c0,0.4-0.1,0.7-0.3,1.1
	s-0.4,0.7-0.6,1c-0.2,0.3-0.5,0.5-0.8,0.6c-0.3,0.1-0.6,0.2-1,0.2c-0.4,0-0.7-0.1-1.2-0.3L128.3,110.9z M138.4,101.3
	c-0.1-0.2-0.3-0.4-0.5-0.6c-0.2-0.2-0.4-0.3-0.7-0.3c-0.5-0.1-0.9-0.1-1.2,0c-0.4,0.1-0.6,0.4-0.8,0.8l0,0c0-0.3-0.2-0.6-0.4-0.9
	c-0.2-0.2-0.5-0.4-0.8-0.5c-0.6-0.1-1-0.1-1.4,0.2c-0.4,0.3-0.6,0.7-0.8,1.3l-0.9,3.2l6.8,1.8l0.8-3.1c0.1-0.4,0.2-0.8,0.2-1.2
	C138.6,101.9,138.5,101.6,138.4,101.3z M134.5,102.3l-0.5,1.9l-1.9-0.5l0.5-1.9c0.1-0.3,0.2-0.5,0.4-0.7c0.2-0.1,0.4-0.2,0.8-0.1
	c0.3,0.1,0.5,0.2,0.6,0.5C134.6,101.8,134.6,102,134.5,102.3z M137.5,102.9L137,105l-2.1-0.6l0.6-2.1c0.1-0.4,0.3-0.6,0.5-0.8
	c0.2-0.1,0.5-0.2,0.9-0.1c0.3,0.1,0.6,0.3,0.7,0.5C137.6,102.3,137.6,102.6,137.5,102.9z M179.4,74.4l-5.4-24.1l0.5,24.1H171V46.6
	h4.8l5.6,24.3l-0.5-24.3h3.3v27.8H179.4z M198.2,74.4l-1-5.3h-6.4l-0.9,5.3h-3.6l6-27.8h3.5l6.1,27.8H198.2z M193.9,51.8L191.3,66
	h5.3L193.9,51.8z M209.3,49.7v24.7h-3.4V49.7h-5.3v-3.1h14v3.1H209.3z M216.9,74.4V46.6h3.4v27.8H216.9z M237.6,65
	c0,0.8,0,1.7-0.1,2.5c-0.2,2-0.5,4.4-2.1,5.8c-0.9,0.8-2.3,1.5-4.8,1.5c-0.8,0-3.7,0.1-5.4-2.2c-0.2-0.3-0.6-0.9-0.8-1.8
	C224,69.2,224,66,224,62c0-2.5,0-5,0.1-7.5c0.1-3.2,0.5-4.8,1.5-6c0.9-1.1,2.5-2.3,5.6-2.3c0.8,0,4.2,0,5.7,3.1
	c0.4,0.8,0.6,1.6,0.7,2.5c0.2,2,0.2,6.4,0.2,8.4C237.8,61.8,237.7,63.4,237.6,65z M234.2,54.3c0-1.1,0-2.8-0.5-3.9
	c-0.3-0.5-1.1-1.4-2.7-1.4c-0.4,0-1.3,0-2,0.7c-1.3,1.1-1.4,2.9-1.4,6.1v1.9c0,2.7,0,5.3,0,8c0,2,0,3.2,0.3,4c0.3,0.8,0.9,2,3,2
	c1.1,0,2.2-0.5,2.7-1.6c0.6-1.2,0.6-3.5,0.6-6.5c0-1.2,0-2.4,0-3.7C234.3,58.2,234.3,56.3,234.2,54.3z M249.8,74.4l-5.4-24.1
	l0.5,24.1h-3.4V46.6h4.8l5.6,24.3l-0.5-24.3h3.3v27.8H249.8z M268.6,74.4l-1-5.3h-6.4l-0.9,5.3h-3.6l6-27.8h3.5l6.1,27.8H268.6z
	 M264.3,51.8L261.8,66h5.3L264.3,51.8z M274.2,74.4V46.6h3.5v24.7h8.1v3.1H274.2z M183.9,103.3c0,0.2,0,1.5-0.2,2.4
	c-0.5,2.9-2,3.9-3.3,4.3c-1.3,0.5-2.7,0.5-3.1,0.5c-1.6,0-2.9-0.2-4.2-1.2c-0.3-0.2-0.8-0.7-1.3-1.4c-1.1-1.6-1.2-3.7-1.2-7.5v-4.4
	c0-1.6,0-3.1,0-4.7c0-2.1,0-5.2,1.5-7c1.2-1.7,3.5-2.3,5.5-2.3c2.5,0,3.9,1,4.6,1.8c1.1,1.1,1.5,2.5,1.5,5.6c0,0.6,0,1.2,0,1.8h-3.2
	c0-1,0-2,0-3c0-1.1-0.1-2-1.1-2.7c-0.3-0.2-0.9-0.6-1.8-0.6c-0.9,0-2.6,0.2-3.1,2.4c-0.4,1.6-0.4,5-0.4,9.1c0,2.1,0,4.1,0.1,6.2
	c0,1.1,0,2.6,0.6,3.6c0.7,1.3,2.4,1.4,2.8,1.4c0.3,0,1.1,0,1.8-0.6c1.3-1,1.3-3.2,1.3-4.6v-2h3.2C184,101.4,184,102.3,183.9,103.3z
	 M197.2,110.1V97.2h-6.3v12.9h-3.5V82.4h3.5v11.8h6.3V82.4h3.5v27.8H197.2z M214.6,110.1l-1-5.3h-6.4l-0.9,5.3h-3.6l6-27.8h3.5
	l6.1,27.8H214.6z M210.3,87.5l-2.6,14.3h5.3L210.3,87.5z M220.1,110.1V82.4h3.4v27.8H220.1z M238.5,110.1l-4.7-12.2h-2.9v12.2h-3.4
	V82.4h6.1c1.8,0,3.7,0.1,5.2,1.3c2.3,1.9,2.2,5.5,2.2,6.1c0,1.2-0.1,2.3-0.3,3.5c-0.3,1.6-0.7,2.4-1.1,2.9c-0.9,1.1-1.9,1.3-2.3,1.4
	l5,12.6H238.5z M237.1,87.4c-0.7-2-2.8-1.8-4.5-1.8h-1.7v9.7h1.8c1.5,0,2.3,0,3-0.3c1.7-0.7,1.7-3.1,1.7-4.6
	C237.4,89.4,237.4,88.3,237.1,87.4z M259.6,110.1l0.5-25.1l-4.1,25.1h-4.4L247.5,85l0.5,25.1h-3.4V82.4h5.2l3.9,24.8l3.8-24.8h5.3
	v27.8H259.6z M276.7,110.1l-1-5.3h-6.4l-0.9,5.3h-3.6l6-27.8h3.5l6.1,27.8H276.7z M272.5,87.5l-2.6,14.3h5.3L272.5,87.5z
	 M290.7,110.1l-5.4-24.1l0.5,24.1h-3.4V82.4h4.8l5.6,24.3l-0.5-24.3h3.3v27.8H290.7z M299.2,92.3v-2c1.3-0.4,1.5-1.5,1.5-2.6
	c0-0.2,0-0.5,0-0.7h-1.5v-4.6h3.3v4.8C302.5,89.7,302,91.8,299.2,92.3z M316.2,109.3c-1.7,1.2-3.7,1.2-4.3,1.2c-1,0-5-0.1-6.3-3.8
	c-0.4-1-0.4-2-0.4-3.1v-3.1h3.3v1.4c0,1.9,0,2.8,0.3,3.7c0.3,0.7,1.1,2,3.1,2c1.3,0,2.6-0.6,3.2-1.8c0.3-0.7,0.3-1.4,0.3-1.7
	c0-2.4-1.1-3.3-2.6-4.9l-3.7-3.9c-2.2-2.2-3.2-3.7-3.2-7c0-0.4,0-1.5,0.3-2.6c0.5-1.8,2.1-3.8,6.1-3.8c0.9,0,4.7,0,5.6,3.6
	c0.2,0.9,0.2,2.2,0.2,3.2v1.8h-3.1c0-1.7,0-1.3,0-2.3c0-1.3-0.2-2.5-1.5-3.1c-0.6-0.3-1.2-0.3-1.5-0.3c-0.8,0-1.5,0.2-2.1,0.7
	c-0.3,0.3-0.5,0.6-0.6,0.7c-0.2,0.4-0.3,0.9-0.3,1.8c0,0.2,0,0.9,0.2,1.6c0.4,1.3,1.6,2.4,2.5,3.3l4.4,4.6c0.3,0.4,0.6,0.7,0.9,1.1
	c0.7,0.9,1.5,2.3,1.5,5C318.7,107.1,317.4,108.5,316.2,109.3z M183.9,139.1c0,0.2,0,1.5-0.2,2.4c-0.5,2.9-2,3.9-3.3,4.3
	c-1.3,0.5-2.7,0.5-3.1,0.5c-1.6,0-2.9-0.2-4.2-1.2c-0.3-0.2-0.8-0.7-1.3-1.4c-1.1-1.6-1.2-3.7-1.2-7.5v-4.4c0-1.6,0-3.1,0-4.7
	c0-2.1,0-5.2,1.5-7c1.2-1.7,3.5-2.3,5.5-2.3c2.5,0,3.9,1,4.6,1.8c1.1,1.1,1.5,2.5,1.5,5.6c0,0.6,0,1.2,0,1.8h-3.2c0-1,0-2,0-3
	c0-1.1-0.1-2-1.1-2.7c-0.3-0.2-0.9-0.6-1.8-0.6c-0.9,0-2.6,0.2-3.1,2.4c-0.4,1.6-0.4,5-0.4,9.1c0,2.1,0,4.1,0.1,6.2
	c0,1.1,0,2.6,0.6,3.6c0.7,1.3,2.4,1.4,2.8,1.4c0.3,0,1.1,0,1.8-0.6c1.3-1,1.3-3.2,1.3-4.6v-2h3.2C184,137.1,184,138.1,183.9,139.1z
	 M187.4,145.9v-27.8h3.5v24.7h8.1v3.1H187.4z M211.9,145.4c-1.7,0.9-3.4,0.9-4,0.9c-1.7,0-3.8-0.4-5.1-1.6c-0.3-0.3-0.8-0.9-1.1-1.9
	c-0.5-1.5-0.5-3.5-0.5-3.8v-20.8h3.5v18.4c0,2.4-0.1,4,0.3,5c0.4,1,1.3,1.4,1.7,1.5c0.4,0.1,0.7,0.2,1.4,0.2c1.1,0,1.8-0.2,2.5-1
	c0.1-0.2,0.4-0.5,0.5-1c0.1-0.6,0.2-1.9,0.2-3.4v-19.7h3.5v20.7C214.7,141.4,214.5,144,211.9,145.4z M230.7,143.7
	c-0.8,0.9-1.7,1.4-2.1,1.6c-1.4,0.5-2.6,0.5-5.3,0.5h-4.8v-27.8h6.9c2.8,0,4,0.7,5,1.7c1.6,1.8,1.6,4.1,1.6,4.8
	c0,0.6,0.1,2.9-1.2,4.6c-0.7,0.9-1.3,1.2-1.7,1.3c-0.6,0.2-0.9,0.3-1.5,0.3c0.4,0,1.5,0,2.6,0.7c1.3,0.9,2.3,2.5,2.3,5.7
	C232.3,140.8,231.9,142.4,230.7,143.7z M227.4,121.9c-0.9-0.8-2.4-0.7-3.5-0.7h-2v8.3h2.4c0.6,0,1.1,0,1.7-0.1
	c1.5-0.3,2.5-1.3,2.5-4.1C228.5,125.2,228.6,122.9,227.4,121.9z M228.3,134.1c-0.1-0.2-0.4-0.7-0.9-1.1c-0.9-0.6-1.6-0.6-3.5-0.6
	h-1.9v10.3h2c0,0,1.6,0.1,2.4-0.1c1.6-0.4,2.6-1.5,2.6-4.5C228.9,138.1,229,135.5,228.3,134.1z M238,118.8v5.9h-0.8v-5.9h-1.3v-0.7
	h3.3v0.7H238z M243.4,124.8l0.1-6l-1,6h-1l-1-6l0.1,6h-0.8v-6.7h1.2l0.9,5.9l0.9-5.9h1.3v6.7H243.4z M181.3,37.2
	c-0.1-0.3-0.1-0.6-0.2-1c0-0.3-0.1-0.7-0.1-1c0-0.3,0-0.6,0-0.8c0-0.4-0.1-0.8-0.2-1.1c-0.1-0.4-0.2-0.7-0.4-0.9
	c-0.2-0.3-0.4-0.5-0.7-0.7c-0.3-0.2-0.7-0.3-1.1-0.4v0c0.9-0.2,1.6-0.6,2-1.2c0.4-0.6,0.7-1.4,0.7-2.3c0-0.6-0.1-1.2-0.3-1.6
	c-0.2-0.5-0.5-0.8-0.9-1.1c-0.4-0.3-0.8-0.5-1.3-0.6c-0.5-0.1-1-0.2-1.6-0.2h-6.3v13.8h1.3v-6.1h5c0.6,0,1.1,0.1,1.5,0.3
	c0.4,0.2,0.6,0.5,0.8,0.9c0.2,0.4,0.3,0.8,0.4,1.3c0.1,0.5,0.1,1,0.1,1.5c0,0.1,0,0.3,0,0.5c0,0.2,0,0.4,0,0.6
	c0,0.2,0.1,0.4,0.1,0.6c0,0.2,0.1,0.3,0.2,0.5h1.4C181.5,37.8,181.4,37.5,181.3,37.2z M178.1,30.5c-0.4,0.1-0.7,0.2-1.1,0.2h-4.9
	v-5.4h4.9c1,0,1.7,0.2,2.2,0.7s0.7,1.2,0.7,2c0,0.4-0.1,0.8-0.2,1.1c-0.2,0.3-0.4,0.6-0.6,0.8C178.8,30.2,178.5,30.4,178.1,30.5z
	 M195.6,28.4c-0.3-0.9-0.7-1.6-1.2-2.3c-0.5-0.7-1.2-1.2-2-1.6c-0.8-0.4-1.8-0.6-2.8-0.6c-1.1,0-2,0.2-2.8,0.6
	c-0.8,0.4-1.5,0.9-2,1.6c-0.5,0.7-0.9,1.4-1.2,2.3c-0.3,0.9-0.4,1.8-0.4,2.7c0,1,0.1,1.9,0.4,2.7c0.3,0.9,0.7,1.6,1.2,2.3
	c0.5,0.7,1.2,1.2,2,1.6c0.8,0.4,1.8,0.6,2.8,0.6c1.1,0,2-0.2,2.8-0.6c0.8-0.4,1.5-0.9,2-1.6c0.5-0.7,0.9-1.4,1.2-2.3
	c0.3-0.9,0.4-1.8,0.4-2.7C196,30.1,195.9,29.2,195.6,28.4z M194.4,33.3c-0.2,0.7-0.5,1.4-0.9,1.9c-0.4,0.6-1,1-1.6,1.4
	c-0.6,0.3-1.4,0.5-2.3,0.5c-0.9,0-1.7-0.2-2.3-0.5c-0.7-0.3-1.2-0.8-1.6-1.4c-0.4-0.6-0.7-1.2-0.9-1.9s-0.3-1.5-0.3-2.2
	c0-0.8,0.1-1.5,0.3-2.2c0.2-0.7,0.5-1.4,0.9-1.9c0.4-0.6,1-1,1.6-1.4c0.7-0.3,1.4-0.5,2.3-0.5c0.9,0,1.7,0.2,2.3,0.5
	c0.6,0.3,1.2,0.8,1.6,1.4c0.4,0.6,0.7,1.2,0.9,1.9c0.2,0.7,0.3,1.5,0.3,2.2C194.7,31.8,194.6,32.5,194.4,33.3z M195.9,24.2h1.5
	l4.5,7l4.5-7h1.6l-5.4,8.1v5.7h-1.3v-5.7L195.9,24.2z M213.1,24.2h-1.5l-5.5,13.8h1.4l1.7-4.3h6.3l1.7,4.3h1.4L213.1,24.2z
	 M209.6,32.6l2.8-7.1l2.7,7.1H209.6z M221.4,24.2v12.6h7.7v1.1h-9V24.2H221.4z M237.9,24.2v12.6h7.7v1.1h-9V24.2H237.9z M267.2,26.5
	c-0.2-0.5-0.5-0.9-0.8-1.2c-0.4-0.3-0.8-0.6-1.3-0.8c-0.5-0.2-1.1-0.3-1.7-0.3h-6.1v13.8h1.3v-5.9h4.8c0.6,0,1.2-0.1,1.7-0.3
	c0.5-0.2,0.9-0.4,1.3-0.8c0.4-0.3,0.6-0.8,0.8-1.2c0.2-0.5,0.3-1,0.3-1.7C267.5,27.5,267.4,27,267.2,26.5z M265.4,30.2
	c-0.6,0.5-1.3,0.7-2.2,0.7h-4.5v-5.6h4.5c0.9,0,1.7,0.2,2.2,0.7c0.6,0.5,0.8,1.2,0.8,2.1C266.2,29.1,265.9,29.8,265.4,30.2z
	 M273.9,24.2h-1.5l-5.5,13.8h1.4l1.7-4.3h6.3l1.7,4.3h1.4L273.9,24.2z M270.4,32.6l2.8-7.1l2.7,7.1H270.4z M291.1,37.9l-0.2-2.5h0
	c-0.2,0.5-0.5,0.9-0.9,1.3c-0.3,0.4-0.7,0.6-1.1,0.9c-0.4,0.2-0.9,0.4-1.3,0.5c-0.5,0.1-1,0.2-1.5,0.2c-1.1,0-2-0.2-2.8-0.6
	c-0.8-0.4-1.5-0.9-2-1.6c-0.5-0.7-0.9-1.4-1.2-2.3c-0.3-0.9-0.4-1.8-0.4-2.7c0-1,0.1-1.9,0.4-2.7c0.3-0.9,0.7-1.6,1.2-2.3
	c0.5-0.7,1.2-1.2,2-1.6c0.8-0.4,1.8-0.6,2.8-0.6c0.7,0,1.4,0.1,2,0.3c0.6,0.2,1.2,0.5,1.7,0.9c0.5,0.4,0.9,0.9,1.3,1.4
	c0.3,0.6,0.6,1.2,0.7,2h-1.3c0-0.4-0.2-0.8-0.4-1.2c-0.2-0.4-0.5-0.8-0.9-1.1c-0.4-0.3-0.8-0.6-1.4-0.8c-0.5-0.2-1.1-0.3-1.8-0.3
	c-0.9,0-1.7,0.2-2.4,0.5c-0.7,0.3-1.2,0.8-1.6,1.4c-0.4,0.6-0.7,1.2-0.9,1.9c-0.2,0.7-0.3,1.5-0.3,2.2c0,0.7,0.1,1.5,0.3,2.2
	c0.2,0.7,0.5,1.4,0.9,1.9c0.4,0.6,1,1,1.6,1.4c0.7,0.3,1.4,0.5,2.4,0.5c0.8,0,1.4-0.1,2-0.4c0.6-0.3,1.1-0.6,1.5-1
	c0.4-0.4,0.7-1,0.9-1.6c0.2-0.6,0.3-1.3,0.3-2h-4.7V31h5.8v7H291.1z M304.3,24.2v1.1h-8.2v5h7.7v1.1h-7.7v5.4h8.3v1.1h-9.6V24.2
	H304.3z M254.6,36.8v1.1h-7.5V27.4h7.4v1.1h-6.1v3.4h5.7v1.1h-5.7v3.7H254.6z M315.4,27.4c0,0.5-0.1,1-0.3,1.4
	c-0.2,0.4-0.4,0.8-0.8,1.1c-0.3,0.3-0.7,0.5-1.1,0.7c-0.4,0.2-0.9,0.3-1.3,0.3c-0.5,0-1-0.1-1.4-0.3c-0.4-0.2-0.8-0.4-1.1-0.7
	c-0.3-0.3-0.5-0.7-0.7-1.1c-0.2-0.4-0.3-0.9-0.3-1.4c0-0.5,0.1-1,0.3-1.4c0.2-0.4,0.4-0.8,0.8-1.1c0.3-0.3,0.7-0.5,1.1-0.7
	c0.4-0.2,0.9-0.3,1.3-0.3c0.5,0,0.9,0.1,1.3,0.3c0.4,0.2,0.8,0.4,1.1,0.7c0.3,0.3,0.6,0.7,0.8,1.1C315.3,26.4,315.4,26.9,315.4,27.4
	z M314.7,27.4c0-0.4-0.1-0.8-0.2-1.2c-0.1-0.4-0.3-0.7-0.6-0.9c-0.2-0.3-0.5-0.5-0.9-0.6c-0.3-0.1-0.7-0.2-1.1-0.2
	c-0.4,0-0.7,0.1-1.1,0.2c-0.3,0.1-0.6,0.3-0.9,0.6c-0.2,0.3-0.4,0.6-0.6,0.9c-0.1,0.4-0.2,0.8-0.2,1.2c0,0.4,0.1,0.8,0.2,1.1
	s0.3,0.7,0.5,0.9c0.2,0.3,0.5,0.5,0.9,0.6c0.3,0.2,0.7,0.2,1.1,0.2c0.4,0,0.7-0.1,1.1-0.2c0.3-0.1,0.6-0.3,0.9-0.6
	c0.2-0.3,0.4-0.6,0.6-0.9C314.6,28.3,314.7,27.9,314.7,27.4z M311.3,29.5h-0.6v-3.9h1.5c0.5,0,0.8,0.1,1.1,0.3s0.4,0.5,0.4,0.9
	c0,0.4-0.1,0.6-0.3,0.8c-0.2,0.2-0.4,0.3-0.7,0.3l1.1,1.7h-0.7l-1-1.7h-0.6V29.5z M312,27.2c0.1,0,0.2,0,0.3,0c0.1,0,0.2,0,0.3-0.1
	c0.1,0,0.1-0.1,0.2-0.2c0.1-0.1,0.1-0.2,0.1-0.3c0-0.1,0-0.2-0.1-0.3c-0.1-0.1-0.1-0.1-0.2-0.2c-0.1,0-0.2-0.1-0.3-0.1
	c-0.1,0-0.2,0-0.3,0h-0.8v1.1H312z M259.4,128.4V127h10v1.4h-4.2v11.1h-1.7v-11.1H259.4z M281.5,130.8c-0.2-0.8-0.6-1.5-1.1-2.1
	c-0.5-0.6-1.1-1.1-1.9-1.4c-0.7-0.4-1.6-0.5-2.6-0.5c-1,0-1.9,0.2-2.6,0.5c-0.7,0.4-1.4,0.8-1.9,1.4c-0.5,0.6-0.9,1.3-1.1,2.1
	c-0.2,0.8-0.4,1.6-0.4,2.5c0,0.8,0.1,1.7,0.4,2.5s0.6,1.5,1.1,2.1c0.5,0.6,1.1,1.1,1.9,1.4c0.7,0.4,1.6,0.5,2.6,0.5
	c1,0,1.9-0.2,2.6-0.5c0.7-0.4,1.4-0.8,1.9-1.4c0.5-0.6,0.9-1.3,1.1-2.1c0.3-0.8,0.4-1.6,0.4-2.5
	C281.8,132.4,281.7,131.6,281.5,130.8z M279.9,135.1c-0.2,0.6-0.4,1.2-0.8,1.6c-0.3,0.5-0.8,0.9-1.3,1.2c-0.5,0.3-1.2,0.4-2,0.4
	c-0.8,0-1.4-0.1-2-0.4c-0.5-0.3-1-0.7-1.3-1.2c-0.3-0.5-0.6-1-0.8-1.6c-0.2-0.6-0.2-1.2-0.2-1.9c0-0.6,0.1-1.2,0.2-1.9
	c0.2-0.6,0.4-1.2,0.8-1.6c0.3-0.5,0.8-0.9,1.3-1.2s1.2-0.4,2-0.4c0.8,0,1.4,0.1,2,0.4c0.5,0.3,1,0.7,1.3,1.2c0.3,0.5,0.6,1,0.8,1.6
	c0.2,0.6,0.2,1.2,0.2,1.9C280.2,133.9,280.1,134.5,279.9,135.1z M292.5,128c-0.6-0.6-1.6-1-2.9-1h-5.5v12.5h1.7v-5.1h3.8
	c1.3,0,2.2-0.3,2.9-1c0.6-0.7,1-1.6,1-2.7C293.4,129.5,293.1,128.6,292.5,128z M291.1,132.4c-0.4,0.4-1.1,0.6-2.1,0.6h-3.2v-4.6h3.2
	c0.9,0,1.6,0.2,2.1,0.6c0.4,0.4,0.7,1,0.7,1.7S291.5,132,291.1,132.4z M304.4,139.5v-8.9h-3.2v-1.2c0.4,0,0.8,0,1.2-0.1
	c0.4-0.1,0.8-0.2,1.1-0.4c0.3-0.2,0.6-0.4,0.8-0.7c0.2-0.3,0.4-0.7,0.5-1.2h1.1v12.4H304.4z M317.3,129.2c-0.1-0.4-0.2-0.8-0.5-1.1
	c-0.2-0.3-0.5-0.6-0.9-0.8c-0.4-0.2-0.8-0.3-1.4-0.3c-0.5,0-1,0.1-1.3,0.3c-0.4,0.2-0.7,0.5-0.9,0.8c-0.2,0.3-0.4,0.7-0.5,1.1
	c-0.1,0.4-0.1,0.9-0.1,1.4c0,0.5,0,0.9,0.1,1.3c0.1,0.4,0.3,0.8,0.5,1.1c0.2,0.3,0.5,0.6,0.9,0.7c0.4,0.2,0.8,0.3,1.3,0.3
	c0.5,0,0.9-0.1,1.3-0.3c0.3-0.2,0.6-0.5,0.9-0.8c0.2-0.3,0.4-0.7,0.5-1.1c0.1-0.4,0.1-0.9,0.1-1.3
	C317.4,130.1,317.4,129.6,317.3,129.2z M316.1,131.4c0,0.3-0.1,0.6-0.2,0.8c-0.1,0.2-0.3,0.5-0.5,0.6c-0.2,0.2-0.5,0.2-0.8,0.2
	c-0.3,0-0.6-0.1-0.8-0.3c-0.2-0.2-0.3-0.4-0.4-0.6c-0.1-0.2-0.2-0.5-0.2-0.8c0-0.3,0-0.6,0-0.8c0-0.3,0-0.6,0.1-0.8
	c0-0.3,0.1-0.6,0.2-0.8c0.1-0.3,0.3-0.5,0.5-0.6c0.2-0.2,0.5-0.3,0.8-0.3c0.3,0,0.6,0.1,0.8,0.3c0.2,0.2,0.3,0.4,0.4,0.6
	c0.1,0.2,0.2,0.5,0.2,0.8c0,0.3,0,0.6,0,0.8C316.1,130.8,316.1,131.1,316.1,131.4z M324.4,126.9l-9.4,13h-1.5l9.4-13H324.4z
	 M325.9,134.8c-0.1-0.4-0.2-0.8-0.5-1.1c-0.2-0.3-0.5-0.6-0.9-0.8c-0.4-0.2-0.8-0.3-1.4-0.3c-0.5,0-1,0.1-1.3,0.3
	c-0.4,0.2-0.7,0.5-0.9,0.8c-0.2,0.3-0.4,0.7-0.5,1.1c-0.1,0.4-0.1,0.9-0.1,1.4c0,0.5,0,0.9,0.1,1.3c0.1,0.4,0.3,0.8,0.5,1.1
	c0.2,0.3,0.5,0.6,0.9,0.7c0.4,0.2,0.8,0.3,1.3,0.3c0.5,0,0.9-0.1,1.3-0.3c0.3-0.2,0.6-0.4,0.9-0.8c0.2-0.3,0.4-0.7,0.5-1.1
	c0.1-0.4,0.1-0.9,0.1-1.3C326.1,135.7,326,135.2,325.9,134.8z M324.7,137c0,0.3-0.1,0.6-0.2,0.8c-0.1,0.2-0.3,0.5-0.5,0.6
	c-0.2,0.2-0.5,0.2-0.8,0.2c-0.3,0-0.6-0.1-0.8-0.3c-0.2-0.2-0.3-0.4-0.4-0.6c-0.1-0.2-0.2-0.5-0.2-0.8c0-0.3,0-0.6,0-0.8
	c0-0.3,0-0.6,0.1-0.8c0-0.3,0.1-0.6,0.2-0.8c0.1-0.3,0.3-0.5,0.5-0.6c0.2-0.2,0.5-0.3,0.8-0.3c0.3,0,0.6,0.1,0.8,0.3
	c0.2,0.2,0.3,0.4,0.4,0.6c0.1,0.2,0.2,0.5,0.2,0.8c0,0.3,0,0.6,0,0.8C324.8,136.4,324.7,136.7,324.7,137z M252.9,146.9h-1v-30.5
	h74.2v1h-73.1V146.9z"/>
</svg>
