<?xml version="1.0" encoding="UTF-8"?><svg id="Layer_1" xmlns="http://www.w3.org/2000/svg" viewBox="0 0 175 175"><defs><style>.cls-1{fill:#231f20;}.cls-1,.cls-2,.cls-3{stroke-width:0px;}.cls-2{fill:#221f1f;}.cls-3{fill:#ea1d2d;}</style></defs><path class="cls-2" d="m87.5,167.5c-44.11,0-80-35.89-80-80S43.39,7.5,87.5,7.5s80,35.89,80,80-35.89,80-80,80Zm0-158.5C44.21,9,9,44.21,9,87.5s35.22,78.5,78.5,78.5,78.5-35.22,78.5-78.5S130.79,9,87.5,9Z"/><path class="cls-2" d="m36.1,35.12c.31-.31.63-.54.97-.68.34-.15.69-.22,1.04-.23.35,0,.68.06,1,.19.32.13.61.33.87.59.4.4.67.83.79,1.29.13.46.08.96-.15,1.5l.02.02c.24-.13.47-.21.69-.23.23-.02.45,0,.67.07.22.07.44.17.64.3.21.14.4.28.59.44.12.1.25.22.4.36.15.14.31.28.48.41.17.13.34.25.51.35.17.1.34.16.51.19l-1.49,1.51c-.3-.13-.61-.34-.93-.62-.32-.28-.64-.53-.95-.77-.41-.3-.78-.45-1.11-.45-.33,0-.68.19-1.06.57l-1.49,1.51,2.68,2.65-1.49,1.51-6.86-6.79,3.66-3.7Zm2.57,3.61c.34-.35.52-.68.54-1.01.02-.32-.15-.66-.49-1-.33-.33-.66-.48-.98-.46s-.65.21-1,.55l-1.63,1.65,1.93,1.91,1.63-1.65Z"/><path class="cls-2" d="m43,32.64c-.18-.63-.24-1.25-.17-1.86.07-.61.26-1.19.6-1.74.33-.55.8-1.05,1.4-1.47.61-.43,1.23-.71,1.86-.84.63-.13,1.24-.12,1.84.02.6.14,1.16.4,1.69.78.53.38,1.01.86,1.42,1.45.41.57.7,1.17.87,1.79.17.62.23,1.23.16,1.83-.07.6-.27,1.18-.6,1.73-.33.55-.8,1.04-1.41,1.47-.6.43-1.22.71-1.85.84-.63.13-1.24.13-1.83,0s-1.15-.39-1.68-.76c-.53-.37-1-.84-1.4-1.42-.42-.59-.72-1.2-.89-1.83Zm3.43,1.48c.3.26.62.45.97.58.35.13.71.18,1.09.13.38-.04.76-.2,1.15-.48.39-.28.67-.58.83-.93.16-.34.24-.7.23-1.07,0-.37-.08-.74-.23-1.11-.14-.37-.33-.72-.57-1.05-.24-.35-.52-.65-.83-.92-.31-.27-.63-.47-.98-.61-.35-.13-.71-.18-1.09-.14s-.76.2-1.15.48c-.39.28-.67.59-.83.93-.17.35-.24.7-.23,1.08,0,.37.09.75.24,1.13.15.38.35.74.59,1.09.23.33.5.63.8.88Z"/><path class="cls-2" d="m51.42,23.5l2.15-1.03,3.68,2.46.38-4.41,2.13-1.02-.66,6.91,1.6,3.34-1.91.92-1.63-3.39-5.74-3.78Z"/><path class="cls-2" d="m66.49,17.3l6.26,8.18-2.11.64-1.32-1.84-3.45,1.05-.1,2.28-2.04.62.68-10.3,2.08-.63Zm1.84,5.63l-2.19-3.03h-.03s-.17,3.76-.17,3.76l2.39-.73Z"/><path class="cls-2" d="m75.18,15.26l1.22,7.77,4.65-.73.28,1.76-6.74,1.06-1.5-9.53,2.1-.33Z"/><path class="cls-2" d="m91.18,14.32l-.5,7.85,4.69.3-.11,1.78-6.81-.44.62-9.63,2.12.14Z"/><path class="cls-2" d="m103.46,18.88l-.24,1.23-3.52-.68-.28,1.43,3.23.63-.22,1.14-3.23-.63-.32,1.63,3.6.7-.24,1.23-5.06-.98,1.29-6.67,4.99.97Z"/><path class="cls-2" d="m102.32,25.68l-.1-.02-5.16-1,.02-.1,1.31-6.77.1.02,5.08.99-.28,1.43-.1-.02-3.42-.66-.24,1.23,3.23.63-.26,1.34-.1-.02-3.13-.61-.28,1.44,3.6.7-.28,1.43Zm-5.02-1.18l4.86.94.2-1.04-3.6-.7.36-1.83.1.02,3.13.61.18-.94-3.23-.63.32-1.63.1.02,3.42.66.2-1.04-4.79-.93-1.26,6.47Z"/><path class="cls-2" d="m111.32,18.22c.57.19,1.03.44,1.38.73.35.3.6.63.76.99s.24.73.24,1.12c0,.39-.06.77-.19,1.15-.12.37-.3.71-.53,1.03-.23.32-.52.57-.86.76-.34.19-.74.3-1.2.33-.46.03-.97-.05-1.55-.24l-2.12-.7-1.09,3.28-2.01-.67,3.04-9.16,4.13,1.37Zm-1.98,4.13c.23.08.46.13.68.17.23.04.44.03.63-.01s.37-.14.53-.29c.16-.15.28-.37.38-.66.1-.29.13-.54.09-.76-.04-.21-.12-.39-.25-.55-.13-.15-.3-.28-.5-.39-.2-.1-.42-.2-.65-.27l-1.56-.52-.91,2.75,1.57.52Z"/><path class="cls-2" d="m121.28,22.48l-1.08,10.25-1.97-.98.31-2.25-3.23-1.61-1.64,1.58-1.91-.95,7.58-7.01,1.95.97Zm-2.54,5.35l.49-3.71h-.02s-2.71,2.6-2.71,2.6l2.24,1.12Z"/><path class="cls-2" d="m126.4,37.03c-.49-.11-.92-.31-1.3-.59-.6-.44-1.06-.93-1.38-1.49-.33-.56-.52-1.13-.58-1.74-.06-.6,0-1.21.18-1.83.18-.62.48-1.21.9-1.78.42-.58.91-1.06,1.45-1.43.54-.37,1.11-.62,1.71-.76.6-.13,1.21-.13,1.84,0,.63.14,1.24.42,1.84.86.4.29.74.63,1.03,1.03.29.39.5.82.63,1.27.13.45.17.92.12,1.41-.05.49-.22.97-.5,1.44l-1.64-1.19c.22-.51.26-.98.13-1.41-.13-.43-.4-.8-.82-1.1-.39-.28-.77-.44-1.15-.49-.38-.05-.74,0-1.09.12-.35.13-.68.33-.99.59-.31.26-.59.57-.84.91-.24.33-.43.67-.58,1.04-.15.36-.23.73-.24,1.1-.01.37.06.73.22,1.07.16.35.43.66.82.94.57.41,1.11.59,1.63.53.52-.06,1-.35,1.45-.86l-1.73-1.26.93-1.28,3.28,2.39-3.07,4.22-1.09-.8.47-1.01c-.59.17-1.13.2-1.62.08Z"/><path class="cls-2" d="m142.56,38.93l-1.27,1.25-3.57-3.63-1.47,1.45,3.28,3.33-1.18,1.16-3.28-3.33-1.69,1.66,3.65,3.71-1.27,1.25-5.14-5.22,6.88-6.77,5.06,5.15Z"/><path class="cls-2" d="m87.5,145.51c-31.99,0-58.01-26.02-58.01-58.01s26.02-58.01,58.01-58.01,58.01,26.02,58.01,58.01-26.02,58.01-58.01,58.01Zm0-114.52c-31.16,0-56.51,25.35-56.51,56.51s25.35,56.51,56.51,56.51,56.51-25.35,56.51-56.51-25.35-56.51-56.51-56.51Z"/><path class="cls-2" d="m51.83,63.67l4.03,6.47h.03v-6.47h1.99v9.65h-2.12l-4.01-6.46h-.03v6.46h-1.99v-9.65h2.11Z"/><path class="cls-2" d="m65.58,63.67l3.61,9.65h-2.2l-.73-2.15h-3.61l-.76,2.15h-2.14l3.65-9.65h2.18Zm.12,5.92l-1.22-3.54h-.03l-1.26,3.54h2.5Z"/><path class="cls-2" d="m69.38,65.46v-1.78h7.91v1.78h-2.89v7.87h-2.12v-7.87h-2.89Z"/><path class="cls-2" d="m81.88,63.67v9.65h-2.12v-9.65h2.12Z"/><path class="cls-2" d="m84.78,66.53c.22-.62.53-1.16.93-1.62.41-.46.9-.82,1.49-1.08.59-.26,1.26-.39,1.99-.39s1.41.13,2,.39c.59.26,1.08.62,1.49,1.08.41.46.72,1,.93,1.62.22.62.32,1.29.32,2.01s-.11,1.36-.32,1.97c-.22.61-.53,1.14-.93,1.59-.41.45-.9.8-1.49,1.06-.59.26-1.25.39-2,.39s-1.4-.13-1.99-.39c-.59-.26-1.09-.61-1.49-1.06s-.72-.98-.93-1.59c-.22-.61-.32-1.26-.32-1.97s.11-1.39.32-2.01Zm1.94,3.19c.09.38.25.73.45,1.03.21.31.48.55.81.74s.74.28,1.22.28.88-.09,1.22-.28.6-.43.81-.74c.21-.31.36-.65.45-1.03.09-.38.14-.78.14-1.18s-.05-.83-.14-1.23c-.09-.4-.25-.75-.45-1.06-.21-.31-.48-.56-.81-.74s-.74-.28-1.22-.28-.88.09-1.22.28-.6.43-.81.74-.36.66-.45,1.06c-.09.4-.14.81-.14,1.23s.05.8.14,1.18Z"/><path class="cls-2" d="m98.58,63.67l4.03,6.47h.03v-6.47h1.99v9.65h-2.12l-4.01-6.46h-.03v6.46h-1.99v-9.65h2.11Z"/><path class="cls-2" d="m112.65,63.67l3.61,9.65h-2.2l-.73-2.15h-3.61l-.76,2.15h-2.14l3.65-9.65h2.18Zm.12,5.92l-1.22-3.54h-.03l-1.26,3.54h2.5Z"/><path class="cls-2" d="m120.57,63.67v7.87h4.7v1.78h-6.83v-9.65h2.12Z"/><path class="cls-3" d="m69.61,82.13v14.57h-4.38v-14.57h-6.97v-3.84h18.33v3.84h-6.97Z"/><path class="cls-3" d="m77.36,87.5c0-5.65,4.23-9.51,9.75-9.51s9.75,3.86,9.75,9.51-4.25,9.51-9.75,9.51-9.75-3.89-9.75-9.51Zm15.04,0c0-3.08-2.05-5.57-5.29-5.57s-5.29,2.46-5.29,5.57,2.05,5.57,5.29,5.57,5.29-2.46,5.29-5.57Z"/><path class="cls-3" d="m103.75,90.22v6.48h-4.38v-18.41h10.76c4.17,0,6.61,2.07,6.61,5.96s-2.44,5.96-6.61,5.96h-6.38Zm0-8.06v4.2h5.96c1.69,0,2.51-.83,2.51-2.07,0-1.4-.8-2.13-2.51-2.13h-5.96Z"/><path class="cls-2" d="m145.75,45.68c-.23.26-.49.46-.78.6-.28.14-.58.21-.87.22-.3.01-.59-.03-.87-.13-.28-.1-.54-.25-.77-.45-.25-.23-.45-.48-.58-.75-.13-.28-.21-.56-.22-.86-.01-.29.03-.58.14-.88.1-.29.27-.56.49-.82.23-.26.49-.46.78-.6.28-.14.57-.21.87-.22.3-.01.59.03.87.13.29.1.55.26.78.46.23.2.41.44.55.71.13.27.21.55.24.85.02.29-.02.59-.11.89-.1.3-.27.58-.5.85Zm-.38-.33c.19-.21.33-.44.42-.68.09-.24.13-.48.12-.72,0-.24-.06-.46-.16-.68-.1-.22-.25-.41-.44-.57-.19-.17-.4-.29-.63-.37-.23-.08-.46-.1-.7-.08-.24.02-.47.09-.7.21-.23.12-.44.28-.63.5-.18.2-.31.42-.41.65-.09.23-.14.47-.14.7,0,.24.05.47.15.69s.25.43.46.62c.19.17.4.29.62.36.23.07.46.1.69.08.24-.02.47-.09.7-.21s.44-.28.63-.5Zm-2.59-.49l-.32-.28,1.73-1.96.74.66c.24.21.37.41.42.6.04.19-.03.39-.2.59-.16.18-.32.26-.49.26-.17,0-.33-.06-.49-.18l-.21,1.34-.36-.32.23-1.28-.3-.27-.74.84Zm1.34-.79c.06.05.12.1.18.15.06.04.12.07.18.09.06.01.12.01.18,0,.06-.02.12-.06.19-.13.05-.06.08-.12.09-.18s0-.12-.03-.17c-.02-.06-.06-.11-.11-.16-.05-.05-.09-.09-.14-.14l-.39-.34-.51.57.36.32Z"/><path class="cls-1" d="m114.63,102.25v-.48h3.45v.48h-1.44v3.83h-.57v-3.83h-1.44Z"/><path class="cls-1" d="m119.36,101.77l1.36,3.63,1.37-3.63h.78v4.31h-.54v-3.59h-.01l-1.35,3.59h-.49l-1.35-3.59h-.01v3.59h-.54v-4.31h.79Z"/><path class="cls-3" d="m65.89,120.2v-13.69l-4.51,2.54v-4.02l5.57-3.32h3.24v18.48h-4.3Z"/><path class="cls-3" d="m87.5,108.38v5.24c0,4.33-2.72,6.92-7.1,6.92s-7.13-2.59-7.13-6.92v-5.24c0-4.28,2.7-6.92,7.13-6.92s7.1,2.64,7.1,6.92Zm-4.3,5.13v-5.03c0-1.84-.93-3.14-2.8-3.14s-2.83,1.3-2.83,3.14v5.03c0,1.84.93,3.14,2.83,3.14s2.8-1.3,2.8-3.14Z"/><path class="cls-3" d="m90.16,106.44c0-2.8,2.2-4.95,5.06-4.95s5.03,2.15,5.03,4.95-2.2,4.95-5.03,4.95-5.06-2.15-5.06-4.95Zm16.64-4.64h3.68l-13.5,18.4h-3.65l13.48-18.4Zm-9.72,4.64c0-1.09-.78-1.94-1.87-1.94s-1.89.86-1.89,1.94.78,1.94,1.89,1.94,1.87-.86,1.87-1.94Zm6.45,9.18c0-2.8,2.23-4.95,5.05-4.95s5.03,2.15,5.03,4.95-2.2,4.95-5.03,4.95-5.05-2.15-5.05-4.95Zm6.92,0c0-1.09-.78-1.94-1.87-1.94s-1.89.86-1.89,1.94.78,1.94,1.89,1.94,1.87-.86,1.87-1.94Z"/></svg>